<svg width="145" height="340" viewBox="0 0 145 340" fill="none" xmlns="http://www.w3.org/2000/svg">
<path fill-rule="evenodd" clip-rule="evenodd" d="M145 0V340H109.23C108.23 339.33 107.23 338.68 106.23 338.06C88 327.23 77 324.81 61.66 318.44L59.94 317.73L57.47 316.65C52.52 314.47 47.05 311.81 40.75 308.34L38 306.81C36.48 305.94 34.92 305.04 33.31 304.08C9.29 289.79 0 266.64 0 243.78C0.00118903 240.904 0.148044 238.031 0.44 235.17C0.44 235.02 0.44 234.87 0.44 234.72C0.44 234.367 0.48 234.017 0.56 233.67C0.62 233.17 0.68 232.67 0.75 232.18C2.32468 220.307 6.25125 208.867 12.3 198.53C36.5 157.8 64.88 155.81 89.18 116.09L89.66 115.29L90.14 114.5L90.27 114.28C116 70.87 113.89 36.87 117.12 3.85C117.24 2.56 117.38 1.28 117.52 0H145Z" fill="#B7C7FF"/>
<path fill-rule="evenodd" clip-rule="evenodd" d="M144.674 199V193.09C130.214 152.35 121.244 115.87 121.004 95.28C120.754 73.71 131.394 43.28 144.674 13.76V9C130.474 39.93 118.744 72.5 119.004 95.32C119.264 116.94 129.034 155.93 144.674 199Z" fill="white"/>
<path fill-rule="evenodd" clip-rule="evenodd" d="M144.72 331.23V317.97C134.13 260.36 99.54 196.47 72.87 147.24C71.72 145.13 70.6 143.05 69.49 141L68 142.47L71.11 148.21C99.72 201.04 137.51 270.79 144.72 331.23Z" fill="white"/>
<path fill-rule="evenodd" clip-rule="evenodd" d="M12.95 247.166C8.58 246.356 4.27 248.566 0 252.756C0.08 253.606 0.18 254.466 0.29 255.316C4.47 250.856 8.59 248.376 12.58 249.116C23.44 251.116 22.93 262.506 22.07 281.336C21.86 285.906 21.64 290.996 21.56 296.496C22.2 297.066 22.86 297.636 23.56 298.196C23.61 292.196 23.86 286.616 24.1 281.426C24.94 262.206 25.52 249.496 12.95 247.166Z" fill="white"/>
<path fill-rule="evenodd" clip-rule="evenodd" d="M23.33 183C22.89 183.55 22.44 184.09 22 184.66C24.38 188.66 26.77 192.76 29.17 196.96C55.02 242.38 75.19 290.27 84.89 327.33L87.19 328.33C77.63 290.87 57.19 242.14 30.91 195.96C28.3833 191.493 25.8567 187.173 23.33 183Z" fill="white"/>
<path fill-rule="evenodd" clip-rule="evenodd" d="M56.4804 43.5098C61.1655 48.1896 61.1743 55.78 56.5 60.4705C54.2484 62.73 51.1898 64 48 64C44.8102 64 41.7516 62.73 39.5 60.4705C34.8257 55.78 34.8345 48.1896 39.5196 43.5098C44.2048 38.8301 51.7952 38.8301 56.4804 43.5098ZM67.0493 103.059C57.6789 112.419 57.6614 127.599 67.01 136.981C71.5132 141.499 77.6304 144.039 84.01 144.039C90.3896 144.039 96.5068 141.499 101.01 136.981C110.359 127.599 110.341 112.419 100.971 103.059C91.6004 93.6996 76.4196 93.6996 67.0493 103.059Z" fill="#BCEBE3"/>
</svg>
