<svg width="146" height="340" viewBox="0 0 146 340" fill="none" xmlns="http://www.w3.org/2000/svg">
<path fill-rule="evenodd" clip-rule="evenodd" d="M144.99 0V316.63C131.911 329.79 112.282 340 79.9946 340C31.9978 340 0 305 0 260C0 215 55.9962 187 55.9962 140C55.9962 118.8 52.4765 108.13 50.1166 91.68C50.0566 91.32 50.0066 90.95 49.9566 90.58C49.8066 89.58 49.6766 88.49 49.5367 87.4V87.16C48.4706 78.1465 47.9563 69.0763 47.9968 60C47.9968 31.59 63.6357 11.6 83.7244 0H144.99Z" fill="#4D3FAF"/>
<path fill-rule="evenodd" clip-rule="evenodd" d="M73.8246 339.36L75.8245 339.5C76.5444 333.07 77.7344 326.5 78.9543 319.77C82.0541 302.71 85.2638 285.06 81.1941 266.77C77.2744 249.15 51.8161 227.56 24.198 206L22.998 207.6C50.2862 228.93 75.4245 250.22 79.2043 267.2C83.204 285.14 80.0142 302.58 76.9544 319.45C75.7545 326.22 74.5546 332.85 73.8246 339.36Z" fill="#BBC8F9"/>
<path fill-rule="evenodd" clip-rule="evenodd" d="M91.4538 0C87.544 8.54 83.2443 17.4 78.8846 26.38C68.1354 48.6 57.1361 71.25 50.5765 91.68C50.5165 91.32 50.4666 90.95 50.4166 90.58C50.2666 89.58 50.1266 88.49 49.9966 87.4V87.16C56.6961 67.63 66.9954 46.38 77.1547 25.51C81.3345 16.83 85.4542 8.26 89.2939 0H91.4538Z" fill="#BBC8F9"/>
<path fill-rule="evenodd" clip-rule="evenodd" d="M79.8542 191.58C70.0349 183.07 60.0056 174.37 52.926 160C52.6361 160.89 52.3261 161.76 51.9961 162.64C59.1556 176.27 68.9949 184.78 78.5443 193.09C91.7534 204.54 104.223 215.35 109.452 238.69C114.602 261.69 109.782 286.19 105.532 307.81C103.333 318.95 101.273 329.47 100.533 339.07L102.533 338.72C103.253 329.36 105.272 319.08 107.412 308.2C111.702 286.38 116.572 261.66 111.322 238.26C106.032 214.22 92.7233 202.68 79.8542 191.58Z" fill="#BBC8F9"/>
<path fill-rule="evenodd" clip-rule="evenodd" d="M47.7964 326.32C35.5272 300.61 22.908 274.18 0.999512 271C1.07951 271.67 1.1595 272.35 1.24949 273C21.7081 276.26 33.5573 301.09 45.9865 327.16L49.6062 334.71C50.4962 335.04 51.3961 335.37 52.3061 335.71C50.7862 332.58 49.3363 329.44 47.7964 326.32Z" fill="#BBC8F9"/>
<path fill-rule="evenodd" clip-rule="evenodd" d="M87.0091 58.1702C88.0656 58.3566 89.2661 58.5683 89.9546 59.0503C91.0346 59.7503 91.8346 60.8403 91.2546 61.9003C89.6546 64.8003 84.7346 64.7103 82.8146 64.2003C80.8946 63.6903 80.0646 60.5803 79.7246 58.7903C79.3846 57.0003 80.1046 55.9803 81.7246 56.0003C82.6982 56.0123 83.5309 56.5878 84.2901 57.1124C84.7941 57.4607 85.2657 57.7866 85.7246 57.9103C86.0828 58.0068 86.5312 58.0859 87.0091 58.1702ZM104.663 61.9403C105.723 62.0751 106.759 62.3543 107.743 62.7703V62.7903C108.513 63.2803 109.113 64.1003 108.693 64.8103C107.543 66.9203 103.943 66.8703 102.543 66.4903C101.143 66.1103 100.533 63.7803 100.283 62.5403C100.033 61.3003 100.543 60.5203 101.733 60.5403C102.446 60.5523 103.054 60.9728 103.608 61.3557C103.979 61.6123 104.326 61.852 104.663 61.9403ZM68.3656 61.9002C69.2841 62.0185 70.1822 62.2607 71.0356 62.6202H70.9656C71.6356 63.0702 72.1556 63.7602 71.8956 64.4302C70.8856 66.2602 67.8256 66.2002 66.5656 65.8802C65.3056 65.5602 64.7856 63.5702 64.5656 62.4602C64.3456 61.3502 64.7756 60.6702 65.8156 60.6902C66.4385 60.7022 66.9682 61.0658 67.4497 61.3963C67.7721 61.6176 68.0729 61.824 68.3656 61.9002ZM43.1076 84.1003C42.347 83.5174 41.0862 83.2983 39.9969 83.109C39.5537 83.032 39.1388 82.9599 38.7976 82.8703C38.3178 82.7443 37.8282 82.4017 37.3037 82.0348C36.5382 81.4992 35.6986 80.9118 34.7076 80.8703C33.0376 80.8003 32.3276 81.8703 32.7076 83.7103C33.0876 85.5503 33.8976 88.7103 35.8576 89.2303C37.8176 89.7503 42.8576 89.8303 44.4476 86.8803C45.0376 85.8503 44.1776 84.7403 43.1076 84.0303V84.1003ZM123.481 114.15C122.466 113.465 120.812 113.174 119.35 112.917C118.68 112.799 118.051 112.689 117.542 112.55C116.897 112.375 116.237 111.92 115.531 111.433C114.461 110.696 113.283 109.884 111.892 109.86C109.582 109.82 108.622 111.31 109.112 113.79C109.602 116.27 110.752 120.66 113.452 121.39C116.152 122.12 123.061 122.22 125.301 118.15C126.121 116.6 124.951 115.06 123.481 114.08V114.15ZM108.423 132.15C107.469 131.51 105.905 131.233 104.526 130.989C103.924 130.882 103.358 130.782 102.893 130.66C102.277 130.499 101.652 130.067 100.986 129.606C99.9977 128.922 98.9171 128.174 97.6333 128.15C95.4834 128.11 94.6335 129.51 95.0434 131.81C95.4534 134.11 96.5733 138.21 99.0432 138.89C101.513 139.57 108.043 139.67 110.042 135.89C110.882 134.45 109.792 133.02 108.423 132.11V132.15ZM134.971 140.28C133.887 139.56 132.121 139.244 130.56 138.966C129.846 138.838 129.174 138.718 128.631 138.57C127.94 138.382 127.229 137.892 126.47 137.369C125.331 136.584 124.084 135.724 122.632 135.7C120.212 135.66 119.132 137.25 119.632 139.89C120.132 142.53 121.382 147.24 124.272 148.02C124.808 148.156 125.352 148.256 125.901 148.32C129.321 148.72 134.901 148.24 136.901 144.56C137.089 144.231 137.189 143.859 137.191 143.48C137.211 142.22 136.181 141.05 134.971 140.28ZM80.4455 172.989C81.8219 173.233 83.3834 173.51 84.3441 174.15V174.08C85.714 174.99 86.8039 176.42 85.964 177.88C83.9641 181.66 77.4346 181.55 74.9647 180.88C72.4949 180.21 71.375 176.12 70.965 173.81C70.555 171.5 71.405 170.12 73.5548 170.15C74.84 170.168 75.9215 170.919 76.9104 171.605C77.5758 172.067 78.1992 172.499 78.8145 172.66C79.2793 172.782 79.8448 172.882 80.4455 172.989ZM39.7138 121.56C40.7753 121.749 41.9741 121.964 42.7076 122.45V122.38C43.7776 123.1 44.6176 124.21 44.0476 125.31C42.4576 128.26 37.4176 128.16 35.4576 127.65C33.4976 127.14 32.6876 123.93 32.3076 122.14C31.9276 120.35 32.6376 119.21 34.3076 119.29C35.3013 119.338 36.1427 119.924 36.9099 120.458C37.432 120.821 37.9197 121.161 38.3976 121.29C38.7687 121.391 39.2268 121.473 39.7138 121.56ZM83.1701 138.691C84.227 138.88 85.4227 139.094 86.1549 139.58V139.51C87.2249 140.22 88.0349 141.34 87.4949 142.48C85.9049 145.44 80.8649 145.34 78.9049 144.83C76.9449 144.32 76.1349 141.17 75.7549 139.32C75.3749 137.47 76.0849 136.44 77.7549 136.47C78.7622 136.488 79.6203 137.078 80.3995 137.613C80.9121 137.965 81.3906 138.293 81.8549 138.42C82.2243 138.521 82.6824 138.603 83.1701 138.691ZM61.916 133.03C61.2977 132.616 60.2824 132.432 59.3813 132.269C58.9562 132.192 58.5566 132.12 58.236 132.03C57.8395 131.919 57.432 131.621 56.9955 131.302C56.3309 130.816 55.599 130.28 54.736 130.28C53.306 130.28 52.736 131.18 53.006 132.72C53.276 134.26 54.006 136.98 55.696 137.43C57.386 137.88 61.696 137.95 63.046 135.43C63.556 134.53 62.826 133.57 61.916 132.96V133.03ZM139.349 190.45C139.862 190.803 140.341 191.133 140.81 191.26V191.19C141.184 191.292 141.65 191.374 142.146 191.462C143.164 191.641 144.308 191.843 145.04 192.28V196.8C142.85 198.23 139.4 198.09 137.85 197.67C135.9 197.16 135.08 194.01 134.71 192.16C134.34 190.31 135.03 189.28 136.71 189.31C137.722 189.328 138.574 189.915 139.349 190.45ZM127.199 201.641L127.199 201.641C126.71 201.553 126.251 201.471 125.882 201.37C125.411 201.242 124.927 200.906 124.408 200.545C123.636 200.009 122.786 199.418 121.782 199.37C120.102 199.29 119.412 200.43 119.782 202.22C120.152 204.01 120.972 207.22 122.922 207.73C124.872 208.24 129.922 208.34 131.522 205.38C132.102 204.28 131.252 203.18 130.182 202.46V202.53C129.457 202.044 128.258 201.83 127.199 201.641ZM145.03 179.48C144.562 178.267 144.201 177.016 143.95 175.74V175.67C143.62 174.02 144.03 172.83 145.03 172.28V179.48ZM50.4571 146.4C49.7145 145.901 48.4951 145.685 47.4273 145.496C46.9565 145.413 46.5151 145.335 46.1571 145.24C45.6837 145.115 45.1956 144.775 44.6715 144.41C43.9004 143.873 43.0514 143.282 42.0571 143.24C40.3871 143.17 39.6771 144.3 40.0571 146.09C40.4371 147.88 41.2371 151.09 43.1971 151.6C45.1571 152.11 50.1971 152.21 51.7971 149.26C52.3771 148.15 51.5271 147.04 50.4571 146.33V146.4ZM105.715 155.706C107.278 155.996 109.046 156.325 110.123 157.01V156.94C111.702 157.99 112.952 159.64 112.082 161.29C109.683 165.64 102.293 165.53 99.4133 164.75C96.5335 163.97 95.2935 159.26 94.7836 156.62C94.2736 153.98 95.3535 152.39 97.7834 152.43C99.2426 152.454 100.489 153.315 101.627 154.101C102.383 154.623 103.092 155.113 103.783 155.3C104.327 155.448 104.999 155.573 105.715 155.706ZM100.294 185.566L100.294 185.566C99.5785 185.438 98.9061 185.318 98.3629 185.17C97.6715 184.982 96.9625 184.491 96.2053 183.966L96.2053 183.966L96.2052 183.966C95.0679 183.178 93.8219 182.314 92.3633 182.29C89.9335 182.25 88.8536 183.85 89.3635 186.49C89.8735 189.13 91.1234 193.83 94.0032 194.61C96.883 195.39 104.273 195.51 106.672 191.15C107.532 189.5 106.282 187.86 104.703 186.81V186.88C103.626 186.16 101.857 185.844 100.294 185.566ZM118.24 176.953C119.814 177.234 121.608 177.553 122.702 178.28L122.752 178.21C124.321 179.28 125.571 180.9 124.651 182.55C122.252 186.9 114.862 186.79 111.982 186.01C109.102 185.23 107.853 180.54 107.353 177.89C106.853 175.24 107.923 173.65 110.352 173.69C111.807 173.714 113.05 174.577 114.185 175.364C114.945 175.892 115.658 176.386 116.352 176.57C116.884 176.712 117.541 176.829 118.24 176.953ZM83.6247 200.7C82.7695 200.334 81.8675 200.089 80.9447 199.97C80.6517 199.894 80.3522 199.687 80.0313 199.466C79.553 199.135 79.0272 198.772 78.4047 198.76C77.3647 198.74 76.9247 199.42 77.1547 200.53C77.3847 201.64 77.8847 203.63 79.1047 203.96C80.3247 204.29 83.4347 204.33 84.4447 202.5C84.8147 201.83 84.2847 201.14 83.6247 200.7ZM103.873 202.98C104.795 203.095 105.697 203.337 106.553 203.7V203.73C107.213 204.17 107.743 204.86 107.423 205.5C106.413 207.34 103.343 207.29 102.083 206.96C100.823 206.63 100.313 204.64 100.083 203.53C99.8529 202.42 100.293 201.76 101.333 201.77C101.961 201.776 102.49 202.143 102.972 202.477C103.288 202.696 103.584 202.901 103.873 202.98ZM71.0353 188.94C70.18 188.574 69.278 188.329 68.3553 188.21C68.0622 188.134 67.7627 187.927 67.4418 187.706C66.9635 187.375 66.4377 187.012 65.8153 187C64.7753 186.98 64.3353 187.66 64.5653 188.77C64.7952 189.88 65.3053 191.87 66.5153 192.2C67.7253 192.53 70.8453 192.57 71.8553 190.74C72.2052 190.07 71.6753 189.38 71.0353 188.94ZM53.7649 73.2485L53.7648 73.2485L53.7648 73.2485L53.7647 73.2485L53.7647 73.2485C53.2801 73.1613 52.8251 73.0795 52.4565 72.9803C51.9834 72.8531 51.4977 72.511 50.9781 72.145C50.1904 71.5902 49.3247 70.9803 48.3065 70.9803C46.6165 70.9803 45.8965 72.0503 46.3065 73.8703C46.7165 75.6903 47.5065 78.8703 49.4865 79.4503C51.4665 80.0303 56.5465 80.0703 58.1965 77.0803C58.7565 76.0103 57.8965 74.8803 56.8165 74.1603C56.0711 73.6634 54.8445 73.4428 53.7649 73.2485ZM51.2966 114.53C52.3564 114.665 53.3927 114.944 54.3766 115.36C55.1466 115.87 55.7466 116.67 55.3266 117.45C54.1766 119.56 50.5866 119.56 49.1766 119.13C47.7666 118.7 47.1766 116.37 46.9166 115.13C46.6566 113.89 47.1766 113.11 48.3666 113.13C49.0832 113.142 49.6947 113.564 50.2512 113.948C50.6188 114.202 50.9625 114.439 51.2966 114.53ZM112.243 95.7703C111.259 95.3543 110.222 95.0751 109.163 94.9403C108.829 94.849 108.488 94.6126 108.122 94.3596C107.567 93.9752 106.956 93.5523 106.233 93.5403C105.033 93.5203 104.533 94.3003 104.793 95.5403C105.053 96.7803 105.643 99.1103 107.043 99.5403C108.443 99.9703 112.043 99.9703 113.193 97.8603C113.623 97.0803 113.033 96.2803 112.243 95.7703ZM40.4476 103.34C39.4613 102.921 38.4212 102.642 37.3576 102.51C37.0241 102.419 36.6827 102.183 36.3171 101.93C35.762 101.545 35.1511 101.122 34.4276 101.11C33.2276 101.09 32.7276 101.86 32.9876 103.11C33.2476 104.36 33.8376 106.68 35.2376 107.05C36.6376 107.42 40.2376 107.49 41.3876 105.37C41.8176 104.67 41.2076 103.87 40.4476 103.36V103.34ZM72.252 154.92C73.6273 155.167 75.1771 155.444 76.1245 156.08C77.5044 157 78.5943 158.43 77.7843 159.84C75.7045 163.62 69.1749 163.52 66.7051 162.84C64.2353 162.16 63.1753 158.05 62.7054 155.74C62.2354 153.43 63.1553 152.04 65.3052 152.07C66.5925 152.088 67.6791 152.838 68.6744 153.524C69.3412 153.984 69.967 154.416 70.5848 154.58C71.0598 154.707 71.6385 154.81 72.252 154.92ZM81.3143 117.28C80.3062 116.595 78.6492 116.304 77.185 116.047C76.5141 115.929 75.8837 115.819 75.3747 115.68C74.7295 115.505 74.0685 115.049 73.3614 114.561C72.2929 113.824 71.119 113.014 69.7351 112.99C67.4352 112.95 66.4553 114.44 66.9552 116.92C67.4552 119.4 68.5951 123.79 71.295 124.52C73.9948 125.25 80.9043 125.35 83.1442 121.28C83.9541 119.77 82.7842 118.28 81.3143 117.28ZM91.5829 98.4878C93.0426 98.7444 94.6967 99.0353 95.7034 99.7202C97.1833 100.7 98.3433 102.28 97.5333 103.72C95.2935 107.79 88.3839 107.69 85.6841 106.96C82.9843 106.23 81.8444 101.84 81.3444 99.3602C80.8444 96.8802 81.8244 95.3902 84.1242 95.4302C85.5115 95.4544 86.6951 96.2681 87.7692 97.0066C88.4758 97.4924 89.1351 97.9456 89.7738 98.1202C90.2811 98.2589 90.9114 98.3697 91.5828 98.4878H91.5828L91.5829 98.4878ZM136.151 97.1302C135.126 96.4376 133.448 96.1431 131.975 95.8846C131.322 95.77 130.709 95.6624 130.211 95.5302C129.563 95.3581 128.898 94.8974 128.187 94.4042C127.121 93.6656 125.951 92.8542 124.572 92.8302C122.272 92.7902 121.292 94.2902 121.782 96.7602C122.272 99.2302 123.422 103.63 126.121 104.36C128.821 105.09 135.731 105.2 137.971 101.13C138.791 99.6502 137.621 98.1102 136.151 97.1302ZM138.65 122.38C138.16 119.9 139.13 118.45 141.44 118.45C142.75 118.607 143.985 119.146 144.99 120V130.31C144.316 130.253 143.647 130.143 142.99 129.98C140.29 129.25 139.14 124.86 138.65 122.38ZM144.601 82.5603C144.003 82.1568 143.008 81.9808 142.138 81.8268C141.757 81.7595 141.4 81.6964 141.111 81.6203C140.729 81.5197 140.331 81.2478 139.905 80.9572C139.273 80.5253 138.58 80.0522 137.791 80.0403C136.471 80.0203 135.871 80.8903 136.161 82.3403C136.451 83.7903 137.161 86.3403 138.711 86.8103C140.091 87.1803 143.341 87.2803 145.031 85.7303V82.8903C144.894 82.7716 144.751 82.6614 144.601 82.5603ZM123.334 72.8264C124.202 72.9805 125.193 73.1564 125.792 73.5603V73.5503C126.662 74.1303 127.352 75.0303 126.902 75.9103C125.552 78.3003 121.452 78.2803 119.902 77.8103C118.352 77.3403 117.642 74.7903 117.352 73.3403C117.062 71.8903 117.672 71.0203 118.992 71.0403C119.781 71.0522 120.474 71.5253 121.106 71.9572C121.532 72.2478 121.93 72.5197 122.312 72.6203C122.6 72.6962 122.955 72.7592 123.334 72.8264ZM109.343 77.7803C108.266 77.0945 106.498 76.7662 104.935 76.4759C104.219 76.343 103.547 76.218 103.003 76.0703C102.312 75.8826 101.603 75.3933 100.847 74.8708C99.7091 74.0851 98.4627 73.2243 97.0034 73.2003C94.5736 73.1603 93.4936 74.7503 94.0036 77.3903C94.5136 80.0303 95.7535 84.7403 98.6333 85.5203C101.513 86.3003 108.903 86.4103 111.302 82.0603C112.172 80.4603 110.922 78.8203 109.343 77.7703V77.7803ZM75.7296 75.7503C76.7746 75.9366 77.9621 76.1484 78.6851 76.6303C79.7351 77.3303 80.5651 78.4203 79.9851 79.4803C78.3851 82.3803 73.4651 82.2803 71.5451 81.7803C69.6251 81.2803 68.7951 78.1703 68.4551 76.3703C68.1151 74.5703 68.8351 73.5403 70.4551 73.5703C71.4267 73.5883 72.258 74.1639 73.0159 74.6886C73.5217 75.0387 73.9948 75.3663 74.4551 75.4903C74.8133 75.5869 75.2569 75.666 75.7296 75.7503ZM59.3563 170.74C58.6687 170.266 57.4753 170.056 56.4196 169.871C55.94 169.786 55.4887 169.707 55.1263 169.61C54.6609 169.486 54.1859 169.155 53.6792 168.803C52.923 168.277 52.0964 167.702 51.1263 167.69C49.5063 167.67 48.7963 168.69 49.1263 170.49C49.4563 172.29 50.2963 175.38 52.2163 175.9C54.1363 176.42 59.0663 176.49 60.6563 173.59C61.2363 172.54 60.4063 171.44 59.3563 170.74ZM66.5963 94.2803C65.727 93.6986 64.3004 93.4447 63.0409 93.2206C62.4601 93.1173 61.9149 93.0203 61.4763 92.9003C60.9247 92.7496 60.3558 92.3578 59.7464 91.9383C58.8202 91.3005 57.8006 90.5984 56.6063 90.5803C54.6263 90.5504 53.7763 91.8303 54.2063 93.9604C54.6363 96.0904 55.6163 99.8904 57.9463 100.52C60.2763 101.15 66.2363 101.24 68.1663 97.7304C68.8763 96.4104 67.8663 95.0904 66.5963 94.2803ZM133.042 161.616C134.605 161.894 136.373 162.21 137.45 162.93V162.89C138.67 163.7 139.69 164.86 139.71 166.12C139.709 166.503 139.609 166.878 139.42 167.21C137.03 171.56 129.641 171.43 126.761 170.66C123.881 169.89 122.651 165.16 122.121 162.54C121.591 159.92 122.611 158.34 125.031 158.34H125.111C126.57 158.364 127.816 159.228 128.953 160.016C129.71 160.541 130.419 161.032 131.111 161.22C131.654 161.368 132.326 161.488 133.042 161.616Z" fill="#CC90FF"/>
</svg>
