<svg width="145" height="340" viewBox="0 0 145 340" fill="none" xmlns="http://www.w3.org/2000/svg"><mask id="a" style="mask-type:alpha" maskUnits="userSpaceOnUse" x="0" y="0" width="145" height="340"><path fill-rule="evenodd" clip-rule="evenodd" d="M145.1.5v340h-35.7l-3-2C88 327.8 77 325.4 61.8 319l-1.7-.7-2.5-1c-5-2.2-10.4-4.9-16.7-8.4l-2.8-1.5-4.7-2.7A67.5 67.5 0 01.1 244.3c0-2.9.2-5.8.5-8.6v-.5-1l.3-1.5A90 90 0 0112.4 199c24.2-40.7 52.6-42.7 77-82.4l.4-.8.5-.8.1-.2C116.1 71.4 114 37.4 117.2 4.3l.4-3.8h27.5z" fill="#B7C7FF"/></mask><g mask="url(#a)"><path fill="#B7C7FF" d="M.1.5h145v340H.1z"/><path d="M68 139.3c31.4 63.1 67.3 113 80.3 202.3l-2 .2c-12.9-88.8-48.6-138.2-80-201.6l1.8-.9zm-45.6 42.5c29.8 53.6 49.4 88.8 64.9 148.6l-2 .5C70 271.3 50.5 236.3 20.7 182.8l1.7-1zM8.8 248.5c2.3-.5 4.9-.2 7.7 1 2.6 1.3 4.5 2.9 5.7 5.2 1.3 2.3 1.9 5.1 2.1 8.8.5 7.2-.3 18-.9 34.5h-2c.6-16.7 1.4-27.3 1-34.4-.3-3.5-.9-6-2-8a9.8 9.8 0 00-4.7-4.2 10.1 10.1 0 00-6.5-1c-1.9.5-3.6 1.5-5 2.8-3.2 2.6-5.4 6.4-7.1 8.7l-1.6-1.2c1.6-2 4-6.2 7.3-9 1.7-1.5 3.7-2.7 6-3.2zM148 9c-21.3 43.5-28.2 70.7-26.5 97.4 1.8 26.8 12.3 53 26.2 94.6l-2 .7c-13.8-41.4-24.4-68-26.2-95.2-1.8-27.2 5.4-54.8 26.7-98.4l1.8.9z" fill="#fff"/></g></svg>