<svg width="145" height="340" viewBox="0 0 145 340" fill="none" xmlns="http://www.w3.org/2000/svg"><mask id="a" style="mask-type:alpha" maskUnits="userSpaceOnUse" x="0" y="0" width="145" height="340"><path fill-rule="evenodd" clip-rule="evenodd" d="M145.1.5v340H37a84.3 84.3 0 01-5.5-48c3-16.8 10.9-37.5 19.5-58l.8-1.8c9.5-22.1 19.7-43.9 25.5-60.3a132 132 0 004.1-14.7c.8-4.2 1-8.5.8-12.8l-.1-2a66.3 66.3 0 00-4.6-18.2c-1.9-4.7-4-9.3-6.5-13.7l-.7-1.3c-2.4-4.1-5-8.3-7.8-12.5l-.5-.7C43.5 69.3 16.9 39.9.6 1.7L.1.5h145z" fill="#B7C7FF"/></mask><g mask="url(#a)"><path fill="#2D2C35" d="M.1.5h145v340H.1z"/><path d="M59.3 275.5a25 25 0 0113-2.4c4.9.6 10 2.9 15.3 5.9 5.3 3 11.1 6.8 17.2 10.4 12.3 7.2 26.2 13.7 42.4 12.6l.2 2c-16.9 1.2-31.3-5.6-43.6-12.9-6.3-3.7-11.8-7.4-17.2-10.4-5.3-3-10-5-14.5-5.6a23 23 0 00-12 2.2c-4 2-7.5 5.4-8.5 10.7a21 21 0 002 11.5c1.8 4.4 4.6 9 7.8 13.9 3.2 4.8 6.8 9.7 10.4 14.4 3.5 4.7 6.9 9.3 9.6 13.4l-1.7 1.1c-2.7-4-6-8.6-9.5-13.3-3.6-4.7-7.2-9.7-10.5-14.5a85.5 85.5 0 01-8-14.2 22.9 22.9 0 01-2-12.7c1.1-6 5-9.8 9.6-12zm-8.7-42c7.6 2.1 15.3 4.6 23 7 7.8 2.5 15.7 4.9 23.7 7 16 4 32.3 6.7 49 4.7l.2 2c-17 2-33.7-.7-49.7-4.8-8-2-16-4.5-23.8-7-7.8-2.4-15.4-4.9-22.9-6.9l.5-2zm104-60.3c0-5.4.2-20.9-.5-36.2-.4-7.7-1-15.3-2.1-21.6-.5-3.1-1.1-6-1.8-8.2-.7-2.3-1.5-4-2.3-5-16.2-16.5-41.3-29.7-68.7-45C51.8 42.2 22.2 25-2.6 1l1.4-1.4c24.6 23.8 54 40.8 81.4 56 26.9 15 52 28.2 68.4 44.5l.7.8h.1c1 1.4 2 3.4 2.7 5.8.7 2.4 1.4 5.3 1.9 8.5 1 6.4 1.6 14 2 21.8.8 15.4.7 31 .7 36.3 0 13-2.4 26.5-16.3 36-13.8 9.4-38.7 14.8-83.5 12.6v-1l.1-1c44.7 2.2 69-3.3 82.3-12.3 13-8.9 15.4-21.5 15.4-34.3zM57.6-2.1C64 1.7 71.7 4.8 79.7 7.7c8 3 16.4 6 24.8 9.6a92.8 92.8 0 0145 37.3l-1.7 1a90.8 90.8 0 00-44.2-36.5C95.4 15.5 87 12.6 79 9.6s-15.7-6-22.5-10l1-1.7z" fill="#57508F"/></g></svg>