<svg width="146" height="340" viewBox="0 0 146 340" fill="none" xmlns="http://www.w3.org/2000/svg">
<path fill-rule="evenodd" clip-rule="evenodd" d="M144.992 0V340H36.778C30.3034 324.879 28.3917 308.194 31.2783 292C34.2781 275.16 42.1377 254.52 50.8172 234.06L51.5972 232.21C61.0367 210.1 71.2561 188.32 77.0458 171.92V171.84C77.4258 170.76 77.7858 169.7 78.1158 168.68C79.4093 164.921 80.4351 161.074 81.1856 157.17C81.9533 152.96 82.2251 148.674 81.9956 144.4C81.9956 143.72 81.8956 143.04 81.8256 142.4C81.2396 136.84 79.9528 131.377 77.9958 126.14C77.7658 125.5 77.5258 124.85 77.2758 124.2C75.4157 119.51 73.2443 114.95 70.7762 110.55L70.0362 109.24C67.6763 105.09 65.0365 100.92 62.2266 96.7C62.0566 96.47 61.9066 96.23 61.7467 96C43.3976 68.81 16.8191 39.41 0.509972 1.19C0.329982 0.79 0.169991 0.4 0 0H144.992Z" fill="#B7C7FF"/>
<path fill-rule="evenodd" clip-rule="evenodd" d="M144.992 300.45V302.45C140.557 302.816 136.092 302.478 131.763 301.45C117.493 298.13 105.854 291.07 95.5847 284.83C79.5855 275.09 67.9362 268.06 55.2668 279.45C44.1175 289.45 58.0067 308.23 72.7159 328.08C75.6357 332.02 78.5856 336 81.3654 339.96H78.9256C76.3957 336.4 73.7458 332.82 71.116 329.27C55.8468 308.7 41.4276 289.24 53.9369 278C67.7062 265.62 80.4655 273.36 96.6146 283.16C106.764 289.32 118.253 296.29 132.223 299.54C136.403 300.525 140.714 300.832 144.992 300.45Z" fill="white"/>
<path fill-rule="evenodd" clip-rule="evenodd" d="M144.992 250.72V252.72C133.387 253.958 121.66 253.378 110.234 251C87.8049 246.25 68.8859 240.16 50.8169 234.1L51.5969 232.25C69.5959 238.25 88.3849 244.33 110.644 249.05C121.935 251.404 133.526 251.968 144.992 250.72Z" fill="white"/>
<path fill-rule="evenodd" clip-rule="evenodd" d="M144.992 52.35V54.35C144.262 54.24 143.532 54.13 142.822 54C137.886 53.2119 133.088 51.7236 128.573 49.58C113.564 42.15 88.0649 23.7 56.9966 0H60.3164C90.3648 22.87 114.953 40.59 129.483 47.78C134.391 50.0802 139.62 51.6211 144.992 52.35Z" fill="white"/>
<path fill-rule="evenodd" clip-rule="evenodd" d="M84.3054 58.25C107.674 75.37 128.233 90.42 144.992 101.25V103.62L144.322 103.19H144.232C140.072 100.523 135.693 97.6033 131.093 94.43C116.994 84.64 100.845 72.84 83.1255 59.87C58.2368 41.64 30.2584 21.15 0.509972 1.19C0.329982 0.79 0.169991 0.4 0 0H2.33987C31.8483 19.83 59.5868 40.15 84.3054 58.25Z" fill="white"/>
<path fill-rule="evenodd" clip-rule="evenodd" d="M60.6667 96C60.6013 96.0752 60.5534 96.164 60.5267 96.26L60.6667 96Z" fill="#202020"/>
<path fill-rule="evenodd" clip-rule="evenodd" d="M47.9971 108.25V110.48C48.9971 109.27 50.8671 108.4 51.4571 107.28V107.35L52.2571 106.25C52.7171 105.84 52.0971 106.62 52.4971 106.38C53.2971 105.13 54.1471 104.79 54.8371 103.8C55.8971 103.55 57.1271 101.46 58.2571 100.8H58.1171C58.2471 100.48 58.4471 100.58 58.6371 100.44C58.5371 100.39 58.2971 100.6 58.3871 100.44C59.8305 98.8662 61.3701 97.3833 62.9971 96H60.9971C60.8371 96.22 60.6771 96.43 60.5171 96.62C60.6 96.4038 60.7039 96.1961 60.8271 96H60.7171C60.4823 96.5414 60.1424 97.0309 59.7171 97.44C59.4171 96.94 58.1771 98.79 57.4571 98.87C56.4782 99.9539 55.4329 100.976 54.3271 101.93C55.0471 101.84 53.9971 102.27 54.3971 102.52C54.1471 102.81 54.0371 102.91 53.9971 102.91L52.9971 103.52C52.7071 103.62 53.1771 103.2 53.0771 103.15C52.4771 103.71 52.6971 103.26 52.2271 103.56C52.4171 103.56 52.2271 103.92 51.8171 104.21L52.4271 103.89C51.7871 104.89 51.4271 104.33 50.8071 105.32L50.9971 105C50.6371 105.48 49.4471 106.55 49.2871 107.22C49.1771 107.22 48.9871 107.22 49.1571 107.06C48.7435 107.43 48.3559 107.827 47.9971 108.25Z" fill="#202020"/>
<path fill-rule="evenodd" clip-rule="evenodd" d="M54.3267 125C54.0967 124.77 53.2468 125.47 52.8168 125.81C51.8421 126.846 50.9369 127.945 50.107 129.1C49.3243 129.568 48.6137 130.148 47.9971 130.82V133.63C48.737 132.9 49.467 132.05 50.2669 131.25C49.877 131.53 49.757 131.25 50.017 130.97L50.2969 131.03C50.3669 130.75 49.947 131.25 50.177 130.76C50.5469 130.43 50.6069 130.76 50.4669 130.98L50.8269 130.49C50.9069 130.49 50.8269 130.65 50.8769 130.74C50.9369 130.46 51.7769 130.18 51.8769 129.74H51.9469C52.8868 128.81 53.2468 128.32 54.0067 127.55C53.8668 127.39 54.1967 127.13 54.3067 126.78C55.0023 126.248 55.6699 125.681 56.3066 125.08C56.7066 124.53 56.3066 124.81 56.4466 124.51C56.6166 124.61 57.2766 123.93 57.0266 124.37C57.704 123.674 58.3448 122.943 58.9465 122.18C58.7765 122.24 58.6265 122.34 58.6465 122.23C58.6665 122.12 59.1265 121.86 59.1665 121.95V122.02C60.1164 120.66 62.1663 119.76 62.8463 118.57V118.63L63.6462 117.54C64.1062 117.12 63.4862 117.9 63.8962 117.66C64.6862 116.41 65.5461 116.08 66.2361 115.09C67.286 114.83 68.516 112.74 69.6559 112.09H69.5059C69.6459 111.77 69.8359 111.87 70.0259 111.72C69.9259 111.72 69.6959 111.88 69.7859 111.72C71.5958 109.72 73.8957 107.88 75.9556 105.99C76.7055 105.3 75.8756 105.09 77.0155 104.41L76.9255 104.84C78.1754 103.18 79.9253 101.84 81.1653 100.27C81.1653 100.39 81.1653 100.45 81.0353 100.58C81.4553 100.41 82.1552 99.48 82.0352 99.37C82.2652 99.16 82.1752 99.37 82.3652 99.37C82.7452 99.14 82.9652 98.44 83.2552 98.37C83.2552 98.37 83.2552 98.5 83.1652 98.56C83.2952 98.3 84.0951 97.66 83.7651 97.7C84.3651 97.24 84.7151 96.61 85.2351 96.27C85.2369 96.1769 85.2573 96.0851 85.295 96H83.2952C82.8552 96.51 82.2952 97.11 81.9052 97.54C81.9052 97.48 81.9052 97.49 81.9052 97.42C81.1953 97.93 81.8352 98.09 81.0253 98.68C80.5053 98.86 81.3053 98.22 81.0253 98.37C80.5853 98.12 80.2353 99.26 79.5654 99.52L79.6554 99.39C79.1854 99.63 78.9154 100.39 78.3054 100.95V100.89C77.9166 101.615 77.436 102.287 76.8755 102.89C76.8755 102.58 77.0555 102.56 76.8155 102.53C76.5755 102.8 77.1055 102.68 76.6455 103.22C76.4055 103.31 75.9756 103.6 75.7856 103.51L76.2455 103.02C75.8156 103.08 75.6456 103.64 75.3656 103.86L75.3156 103.74C74.6156 104.5 74.8156 104.74 74.0157 105.48H74.1657C73.9457 106.11 73.6857 105.72 73.4157 106.3L73.0757 106.22C72.8457 106.55 72.2958 107.41 71.8358 107.95C72.0903 107.4 72.3949 106.874 72.7457 106.38C72.3478 106.725 72.0098 107.134 71.7458 107.59C71.8239 107.436 71.9328 107.3 72.0658 107.19C71.8255 107.797 71.4492 108.341 70.9658 108.78C70.6558 108.27 69.4159 110.12 68.6959 110.21C67.7128 111.271 66.6677 112.273 65.5661 113.21C66.2861 113.12 65.2461 113.55 65.6361 113.81C65.3861 114.09 65.2861 114.19 65.2361 114.19L64.2362 114.81C63.9562 114.9 64.4162 114.48 64.3262 114.43C63.7162 114.99 63.9362 114.54 63.4662 114.84C63.6662 114.84 63.4662 115.21 63.0563 115.5L63.6762 115.18C63.0263 116.18 62.6763 115.61 62.0463 116.6L62.2063 116.24C61.8463 116.72 60.6464 117.79 60.4964 118.47C60.3864 118.47 60.1964 118.47 60.3564 118.31C59.3065 119.31 58.3565 120.83 57.4466 121.45V121.29C57.2766 121.5 57.2666 121.77 56.9566 121.92C56.9566 121.92 56.9566 121.77 56.8566 121.85C56.6938 122.171 56.4696 122.456 56.1966 122.69L56.3266 122.39C55.2967 123.3 55.0967 124.15 54.3267 125Z" fill="#202020"/>
<path fill-rule="evenodd" clip-rule="evenodd" d="M107.864 96H105.864C105.864 96 105.794 96.06 105.774 96.11C105.484 96.26 105.574 95.95 105.334 96.11C104.924 96.77 104.624 96.56 104.164 97.22C104.454 97.22 104.454 97.13 104.164 97.65L104.994 96.65L104.584 97.42C104.864 97.14 105.094 96.75 105.284 96.61C105.104 96.99 105.104 96.93 105.344 96.91C104.764 97.1 104.694 97.77 104.124 98.08L103.824 97.76C103.024 98.28 102.824 99.09 101.824 99.88L102.154 99.65C102.154 99.89 101.635 100.2 101.415 100.53C101.335 100.4 101.125 100.53 100.935 100.59C101.025 100.65 100.295 101.21 100.435 101.5L99.9046 101.75C99.1546 102.38 99.4146 102.84 98.7147 103.47C98.7947 103.15 98.4247 103.38 98.7847 102.85C98.5647 103.08 98.3447 103.26 98.4147 103.33C98.2147 103.4 97.9347 104.09 97.6347 104.2C97.6347 104.34 97.6347 104.48 97.4047 104.72C97.4047 104.72 97.0847 105.18 97.4047 105.08C96.4048 105.44 95.5148 107.02 94.6349 107.34C94.1849 107.86 93.6349 108.48 93.195 108.93C93.195 108.87 93.195 108.87 93.195 108.8C92.495 109.31 93.125 109.48 92.325 110.06C91.795 110.24 92.595 109.6 92.325 109.76C91.885 109.51 91.535 110.64 90.8651 110.91L90.9651 110.77C90.4851 111.01 90.2251 111.77 89.6152 112.33C89.6152 112.33 89.6152 112.27 89.6152 112.28C89.2277 113.006 88.747 113.679 88.1852 114.28C88.1852 113.97 88.3652 113.96 88.1252 113.92C87.8952 114.2 88.4152 114.07 87.9552 114.61C87.7153 114.7 87.2953 115 87.0953 114.9L87.5653 114.42C87.1353 114.42 86.9553 115.04 86.6753 115.25V115.14C85.9753 115.89 86.1753 116.14 85.3854 116.87H85.5254C85.3054 117.5 85.0554 117.11 84.7754 117.68L84.4454 117.6C84.2154 117.93 83.6555 118.79 83.1955 119.33C83.448 118.782 83.7527 118.26 84.1054 117.77C83.7051 118.113 83.3669 118.522 83.1055 118.98C83.181 118.819 83.2942 118.678 83.4355 118.57C83.1895 119.177 82.8102 119.72 82.3256 120.16C82.0156 119.66 80.7756 121.5 80.0657 121.59C79.0765 122.648 78.0283 123.65 76.9258 124.59C77.6558 124.5 76.6059 124.94 76.9958 125.19C76.7558 125.48 76.6459 125.57 76.6059 125.58L75.6059 126.19C75.3159 126.29 75.7859 125.86 75.6859 125.82C75.0759 126.37 75.3059 125.92 74.836 126.22C75.0259 126.22 74.836 126.59 74.416 126.88L75.0359 126.56C74.396 127.56 74.036 126.99 73.406 127.99L73.566 127.62C73.206 128.11 72.0061 129.18 71.8561 129.85C71.7461 129.85 71.5561 129.9 71.7161 129.69C70.7162 130.69 69.7162 132.21 68.8163 132.83V132.68C68.6563 132.89 68.6363 133.15 68.3263 133.31C68.3263 133.26 68.3263 133.15 68.2263 133.24C68.0593 133.555 67.8394 133.839 67.5763 134.08L67.6963 133.77C66.6164 134.65 66.4064 135.5 65.6364 136.38C65.4065 136.14 64.5565 136.84 64.1365 137.19V137.14C63.1611 138.178 62.2526 139.277 61.4167 140.43C60.5067 140.83 59.0868 142.55 57.8869 143.43C58.0869 143.31 58.0369 143.64 57.8869 143.85C57.7369 144.06 57.3569 144.69 57.1869 144.44L57.2769 144.36C56.8769 144.36 56.427 144.9 56.027 145.29L56.237 145.64C54.787 146.27 53.6571 148.52 52.7272 148.72C52.5472 149.04 52.2372 149.35 52.0572 149.67L51.9172 149.51C51.2373 150.095 50.596 150.722 49.9973 151.39L50.0673 151.11C49.5773 151.58 49.8873 152.11 49.4473 152.61L49.0873 152.52C48.7574 152.85 48.3974 153.16 48.0874 153.47V155.68C48.883 154.784 49.7788 153.982 50.7573 153.29C50.7073 152.89 52.0572 152.18 51.8272 151.79C52.4641 151.469 53.0642 151.08 53.6171 150.63C53.8971 150.38 53.8171 150.04 54.1071 149.69L54.2771 149.84L54.5471 149.23H54.977L55.237 148.89C55.107 149 54.907 149.07 54.877 149C55.2174 148.531 55.6967 148.181 56.247 148L57.2469 146.74C57.2469 146.83 57.1169 147.04 57.0169 147.23C57.4469 146.47 57.2969 147.3 57.6869 146.6C57.5769 146.6 57.6869 146.46 57.6169 146.41C58.1575 146.06 58.6343 145.621 59.0268 145.11V145.32C59.8868 144.51 60.7267 143.51 61.6567 142.57C61.2767 142.86 61.1567 142.57 61.4067 142.29L61.6967 142.36C61.7667 142.07 61.3367 142.58 61.5767 142.08C61.9467 141.75 62.0066 142.08 61.8567 142.3L62.2266 141.82C62.2966 141.82 62.2266 141.97 62.2266 142.06C62.2966 141.78 63.1366 141.5 63.2266 141.06H63.3066C64.2365 140.13 64.6065 139.65 65.3565 138.88C65.2165 138.71 65.5565 138.45 65.6565 138.1C66.3563 137.574 67.0241 137.006 67.6563 136.4C68.0563 135.85 67.6563 136.14 67.7863 135.84C67.9563 135.94 68.6163 135.25 68.3663 135.7C69.0487 135.005 69.6898 134.27 70.2862 133.5C70.1162 133.56 69.9662 133.66 69.9862 133.5C70.0062 133.34 70.4662 133.13 70.5062 133.23V133.29C71.4461 131.94 73.506 131.04 74.176 129.84V129.9L74.9759 128.81C75.4359 128.4 74.816 129.17 75.2259 128.93C76.0259 127.69 76.8758 127.35 77.5658 126.36C78.5658 126.11 79.8557 124.02 80.9856 123.36H80.8456C80.9756 123.04 81.1656 123.14 81.3556 122.99C81.2656 122.99 81.0256 123.16 81.1156 122.99C82.9255 120.99 85.2254 119.16 87.2853 117.27C88.0352 116.57 87.2153 116.37 88.3452 115.68L88.2652 116.12C89.5152 114.45 91.2651 113.12 92.495 111.54C92.495 111.66 92.495 111.72 92.365 111.86C92.795 111.68 93.4849 110.75 93.3649 110.64C93.6049 110.43 93.5149 110.64 93.7049 110.64C94.0749 110.41 94.2949 109.72 94.5849 109.64C94.5849 109.64 94.5849 109.77 94.4949 109.84C94.6349 109.58 95.4248 108.93 95.0949 108.98C95.6948 108.51 96.0948 107.89 96.5648 107.55C96.6848 107.1 97.5647 106.71 97.4147 106.39C97.6247 106.67 98.5547 105.64 98.7747 105.19C98.7747 105.38 99.1446 104.97 99.1146 105.19C99.4946 104.81 99.8046 104.41 99.6146 104.35C100.615 103.93 100.815 102.69 101.615 102.66C102.614 101.38 103.614 100.23 104.614 99.14C104.814 99.42 103.494 100.31 103.794 100.51C104.468 99.5247 105.228 98.6011 106.064 97.75C106.344 97.53 106.064 98 105.974 98.12C106.474 97.35 107.224 96.7 107.864 96Z" fill="#202020"/>
<path fill-rule="evenodd" clip-rule="evenodd" d="M128.603 96C128.315 96.1313 128.035 96.2782 127.763 96.44C127.401 96.7001 127.327 96.9108 127.251 97.1304C127.177 97.3414 127.101 97.5607 126.763 97.84C126.913 97.84 127.153 97.91 126.763 98.44C126.373 98.97 125.953 98.73 126.183 98.44C126.283 98.32 126.353 98.29 126.373 98.32L126.391 98.2941C126.508 98.1297 126.639 97.945 126.373 98.04V98.16C126.265 98.2197 126.113 98.3436 125.968 98.4623C125.724 98.6617 125.498 98.8467 125.523 98.69C125.323 98.97 125.383 98.98 125.523 98.89C125.28 99.0894 125.096 99.2793 124.905 99.4759C124.704 99.6835 124.496 99.8986 124.203 100.14C124.333 100.08 124.493 100.07 124.393 100.14C123.857 100.585 123.848 100.685 123.837 100.802C123.829 100.89 123.82 100.988 123.583 101.25C123.397 101.354 123.35 101.302 123.315 101.265C123.27 101.215 123.247 101.19 122.963 101.57C122.533 101.86 122.713 101.48 122.813 101.29C122.421 101.773 121.943 102.18 121.403 102.49L121.533 102.3C121.47 102.375 121.407 102.436 121.346 102.496C121.3 102.54 121.256 102.583 121.213 102.63H121.503C121.456 102.665 121.412 102.7 121.371 102.732C121.249 102.828 121.161 102.898 121.123 102.86C121.086 102.964 121.139 102.994 121.196 103.026C121.277 103.071 121.367 103.122 121.233 103.39C121.121 103.45 121.002 103.581 120.885 103.71C120.71 103.904 120.537 104.094 120.393 104.04C120.774 103.714 120.701 103.696 120.613 103.675C120.541 103.658 120.46 103.638 120.603 103.45C120.506 103.56 120.399 103.66 120.283 103.75V103.63C119.852 103.903 119.841 104.028 119.828 104.183C119.815 104.322 119.801 104.487 119.473 104.81C119.473 104.63 119.133 104.81 119.043 104.93C119.323 104.65 119.333 104.93 119.143 105.28C118.827 105.503 118.742 105.653 118.665 105.788C118.618 105.87 118.575 105.946 118.483 106.03L118.783 105.8C118.783 105.95 118.64 106.113 118.441 106.338C118.388 106.397 118.332 106.461 118.273 106.53V106.46C118.151 106.618 117.963 106.733 117.765 106.855C117.51 107.012 117.238 107.179 117.064 107.46C116.92 107.542 116.871 107.498 116.825 107.457C116.782 107.418 116.741 107.382 116.624 107.46C116.416 107.794 116.239 107.906 116.055 108.021C115.876 108.133 115.69 108.25 115.464 108.58C115.51 108.58 115.549 108.577 115.58 108.575C115.63 108.571 115.66 108.569 115.67 108.582C115.685 108.602 115.655 108.655 115.58 108.788C115.549 108.844 115.51 108.913 115.464 109L116.284 108L115.894 108.75C116.033 108.615 116.158 108.451 116.271 108.301C116.385 108.151 116.488 108.015 116.584 107.94C116.564 107.983 116.546 108.021 116.53 108.054C116.469 108.184 116.444 108.237 116.46 108.255C116.471 108.267 116.502 108.262 116.555 108.253C116.58 108.249 116.609 108.244 116.644 108.24C116.342 108.341 116.177 108.579 116.006 108.827C115.854 109.047 115.697 109.274 115.434 109.42L115.134 109.09C114.728 109.351 114.478 109.686 114.203 110.055C113.93 110.422 113.633 110.821 113.134 111.21L113.464 110.99C113.464 111.134 113.281 111.303 113.085 111.484C112.953 111.605 112.816 111.732 112.724 111.86C112.661 111.758 112.519 111.816 112.374 111.874C112.334 111.89 112.293 111.907 112.254 111.92C112.289 111.947 112.2 112.048 112.086 112.178C111.907 112.383 111.664 112.659 111.744 112.83L111.224 113.08C110.839 113.408 110.718 113.686 110.596 113.965C110.48 114.229 110.365 114.493 110.024 114.8C110.06 114.676 110.02 114.638 109.984 114.604C109.93 114.552 109.882 114.507 110.104 114.19C110.07 114.223 110.036 114.254 110.004 114.285L110.002 114.286L110.001 114.287L110.001 114.287C109.814 114.462 109.665 114.602 109.724 114.67C109.639 114.697 109.535 114.85 109.419 115.021C109.274 115.234 109.11 115.474 108.944 115.53C108.93 115.568 108.924 115.607 108.918 115.647C108.9 115.754 108.881 115.876 108.714 116.05C108.714 116.077 108.688 116.127 108.66 116.182L108.66 116.182C108.596 116.308 108.519 116.459 108.714 116.41C108.197 116.601 107.712 117.111 107.244 117.602C106.807 118.062 106.384 118.505 105.964 118.66C105.514 119.18 104.964 119.8 104.524 120.25V120.12C104.18 120.372 104.151 120.54 104.121 120.711C104.089 120.894 104.056 121.081 103.644 121.38C103.324 121.497 103.504 121.296 103.625 121.161C103.7 121.077 103.752 121.018 103.644 121.08C103.405 120.944 103.193 121.216 102.943 121.535C102.732 121.804 102.496 122.107 102.194 122.23L102.284 122.1C102.032 122.229 101.838 122.507 101.617 122.823C101.427 123.095 101.217 123.395 100.934 123.65C100.783 124.008 100.585 124.345 100.344 124.65C100.074 125.01 99.7645 125.38 99.5045 125.65C99.5045 125.527 99.5363 125.451 99.5567 125.403C99.5863 125.332 99.5923 125.318 99.4445 125.3C99.3495 125.411 99.3841 125.455 99.4244 125.505C99.4817 125.577 99.5504 125.663 99.2745 125.98C99.2105 126.005 99.1311 126.046 99.0456 126.091C98.8239 126.206 98.5617 126.342 98.4245 126.27L98.8845 125.79C98.6115 125.79 98.4432 126.04 98.2826 126.279C98.1902 126.416 98.1004 126.55 97.9946 126.63V126.51C97.6693 126.859 97.5384 127.099 97.4121 127.331C97.2667 127.598 97.1275 127.854 96.7046 128.25H96.8446C96.7307 128.576 96.6087 128.629 96.4801 128.685C96.3603 128.736 96.2348 128.79 96.1047 129.07L95.7647 128.99C95.7173 129.058 95.6563 129.148 95.5852 129.253L95.5849 129.254C95.3111 129.658 94.8877 130.284 94.5148 130.72C94.7691 130.168 95.0773 129.642 95.4347 129.15C95.0404 129.499 94.703 129.907 94.4348 130.36C94.4639 130.322 94.4922 130.278 94.5212 130.233L94.5212 130.233C94.5915 130.124 94.6656 130.01 94.7647 129.96C94.5164 130.56 94.1411 131.099 93.6648 131.54C93.4983 131.271 93.0635 131.681 92.585 132.131C92.1728 132.52 91.7282 132.938 91.3949 132.98C90.4133 134.058 89.3682 135.077 88.2651 136.03C88.6241 135.985 88.543 136.07 88.4211 136.196C88.2985 136.324 88.1346 136.495 88.3351 136.62C88.0851 136.91 87.9851 137.01 87.9351 137.01L86.9352 137.62C86.7728 137.676 86.8487 137.569 86.9293 137.455C86.9928 137.366 87.0592 137.272 87.0152 137.25C86.6727 137.57 86.5974 137.56 86.5084 137.549C86.4415 137.541 86.3669 137.531 86.1652 137.66C86.2779 137.66 86.2212 137.784 86.1182 137.935L85.9952 138L85.7552 138.31C85.8452 138.245 85.9289 138.171 86.0052 138.09C86.045 138.038 86.0841 137.985 86.1182 137.935L86.3552 137.81C86.2537 137.974 86.1291 138.122 85.9852 138.25C85.8318 138.389 85.6916 138.453 85.5507 138.517C85.306 138.629 85.0589 138.742 84.7353 139.25L84.8853 138.89C84.7771 139.034 84.5941 139.232 84.3866 139.455C83.9034 139.977 83.2873 140.641 83.1754 141.11C83.0654 141.11 82.8854 141.11 83.0454 140.95C82.5946 141.394 82.1705 141.865 81.7755 142.36C81.3117 143.013 80.7598 143.598 80.1355 144.1V144C80.0779 144.071 80.0386 144.149 79.9994 144.227C79.9231 144.379 79.847 144.531 79.6356 144.63C79.6356 144.63 79.6356 144.48 79.5456 144.56C79.3828 144.881 79.1586 145.166 78.8856 145.4L79.0156 145.1C78.3402 145.645 78.0027 146.175 77.6629 146.709C77.4543 147.036 77.2448 147.365 76.9557 147.7C76.7157 147.47 75.8658 148.16 75.4458 148.51C74.471 149.545 73.5625 150.64 72.7259 151.79C72.2142 152.021 71.5412 152.665 70.8368 153.34C70.2886 153.866 69.7213 154.409 69.1961 154.79C69.3961 154.67 69.3561 155 69.1961 155.21C69.1678 155.247 69.1331 155.298 69.0943 155.355C68.9142 155.619 68.6443 156.014 68.4962 155.8L68.5862 155.72C68.2521 155.72 67.8666 156.116 67.5116 156.481L67.5114 156.481L67.5111 156.482L67.5104 156.483L67.5103 156.483C67.4513 156.543 67.3932 156.603 67.3362 156.66L67.5462 157C66.8008 157.331 66.1384 158.091 65.5424 158.775C64.9873 159.413 64.4897 159.984 64.0364 160.08C63.9464 160.24 63.8239 160.397 63.7014 160.555C63.5789 160.713 63.4564 160.87 63.3664 161.03L63.2265 160.87C62.5514 161.46 61.9104 162.087 61.3066 162.75L61.3766 162.47C61.1179 162.718 61.0787 162.991 61.0402 163.258C61.0043 163.508 60.969 163.753 60.7566 163.97L60.3966 163.88C59.4535 164.625 58.604 165.481 57.8667 166.43C57.8667 166.43 57.8068 166.3 57.9367 166.15C57.8594 166.224 57.7508 166.319 57.6285 166.426L57.6278 166.427L57.6265 166.428L57.6261 166.428L57.6249 166.429L57.6247 166.429C57.1226 166.869 56.3933 167.508 56.6437 167.679C56.4192 167.639 55.889 168.42 55.5327 168.945L55.5326 168.945C55.4952 169 55.4598 169.052 55.4269 169.1L55.3569 168.89C55.2518 169.35 55.0277 169.774 54.7069 170.12C54.5869 170.2 54.5169 170.12 54.5869 170.06C54.4279 170.188 54.3821 170.285 54.333 170.389C54.2711 170.519 54.204 170.661 53.897 170.89L53.997 170.6C53.7402 170.794 53.5626 171.075 53.497 171.39C53.287 171.73 52.637 172.19 52.437 172.12C52.4081 172.404 52.2589 172.663 52.0271 172.83C51.9737 172.83 51.9915 172.768 52.0093 172.706C52.0182 172.674 52.0271 172.643 52.0271 172.62C51.619 172.935 51.3922 173.244 51.1899 173.521C50.9807 173.807 50.7976 174.057 50.4671 174.24C50.4121 174.206 50.3422 174.206 50.2872 174.24C50.4833 174.044 50.6691 173.863 50.8263 173.709C51.0779 173.463 51.2563 173.289 51.2871 173.24C51.2368 173.197 51.1425 173.224 51.0512 173.249C50.8886 173.295 50.7355 173.339 50.8571 172.98C50.5531 173.629 50.1405 174.22 49.6372 174.73H49.5272V174.67C49.4191 174.753 49.3303 174.859 49.2672 174.98C49.1167 175.08 48.9761 175.194 48.8472 175.32C48.7179 175.274 48.4382 175.57 48.2061 175.815L48.206 175.816L48.206 175.816L48.206 175.816L48.2059 175.816L48.2059 175.816C48.1329 175.893 48.0647 175.965 48.0073 176.02C48.0746 176.075 48.057 176.156 48.043 176.22C48.0237 176.309 48.0113 176.367 48.2373 176.28L48.4273 176.06C48.4585 176.023 48.4853 175.983 48.5073 175.94L49.0772 175.35C48.9848 175.649 48.7757 175.898 48.4973 176.04C48.4973 176.208 48.4622 176.382 48.4367 176.509C48.4289 176.547 48.422 176.582 48.4173 176.61C48.262 176.647 48.1111 176.701 47.9673 176.77V178.32H48.0273C48.0273 178.32 48.0273 178.39 47.9673 178.43V178.66C48.052 178.571 48.0612 178.494 48.071 178.411C48.0833 178.307 48.0966 178.195 48.2573 178.04L48.5173 178.14C48.8659 177.767 49.2074 177.348 49.5582 176.917C49.9217 176.471 50.2952 176.013 50.6971 175.58C50.6971 175.599 50.6942 175.622 50.6913 175.645C50.6787 175.744 50.6646 175.853 50.8671 175.74C51.8782 174.614 52.9931 173.587 54.1969 172.67L54.4169 172.13C54.5069 172.05 54.6569 172.04 54.5869 172.13C54.8383 171.946 54.7839 171.93 54.7095 171.908C54.6507 171.891 54.5795 171.87 54.6369 171.76C54.7669 171.51 55.0169 171.56 54.9169 171.76C55.6243 170.705 56.4991 169.773 57.5068 169L57.4068 169.19C57.7061 168.952 57.7932 168.726 57.8752 168.513C57.9657 168.278 58.0499 168.059 58.4067 167.86L58.3267 167.99C59.4635 166.77 60.6902 165.637 61.9965 164.6C61.9965 164.421 62.2586 164.18 62.5269 163.934C62.8583 163.629 63.1991 163.316 63.0665 163.1C63.7076 162.781 64.3112 162.392 64.8664 161.94C65.004 161.813 65.0507 161.664 65.1018 161.502C65.151 161.346 65.2042 161.176 65.3463 161L65.5163 161.15L65.7863 160.54H66.2163L66.4763 160.19C66.3463 160.3 66.1463 160.37 66.1163 160.31C66.4532 159.838 66.9337 159.487 67.4862 159.31L68.4862 158.05C68.4862 158.05 68.4862 158.19 68.4162 158.29C68.5184 158.158 68.5662 158.176 68.6137 158.195C68.6776 158.22 68.741 158.244 68.9361 157.9C68.8594 157.9 68.8605 157.832 68.8615 157.777C68.8618 157.753 68.8622 157.732 68.8562 157.72C69.3954 157.365 69.8747 156.926 70.2761 156.42V156.62C70.7508 156.178 71.2195 155.673 71.7023 155.152C72.0939 154.729 72.4949 154.297 72.9159 153.88C72.526 154.16 72.406 153.88 72.6659 153.6H72.7759V153.37C73.1459 153.04 73.2059 153.37 73.0659 153.58L73.4259 153.1C73.4691 153.1 73.4656 153.144 73.4612 153.2C73.4574 153.247 73.4529 153.304 73.4759 153.35C73.5029 153.219 73.6879 153.093 73.8924 152.953C74.1421 152.782 74.4209 152.592 74.4758 152.35H74.5458C75.178 151.718 75.5478 151.294 75.9351 150.85L75.9352 150.849L75.9352 150.849C76.1238 150.633 76.3165 150.412 76.5457 150.16C76.4683 150.065 76.554 149.93 76.6593 149.766C76.7308 149.654 76.8112 149.528 76.8557 149.39C77.5513 148.855 78.2188 148.284 78.8556 147.68C79.0918 147.361 79.049 147.328 79.0033 147.293C78.9715 147.268 78.9383 147.243 78.9956 147.12C79.0748 147.167 79.2604 147.042 79.4107 146.94C79.583 146.824 79.7091 146.74 79.5756 146.98C80.2494 146.283 80.8869 145.552 81.4855 144.79C81.4222 144.79 81.3606 144.813 81.3104 144.832C81.2335 144.862 81.1834 144.881 81.1955 144.79C81.2155 144.64 81.6755 144.43 81.7055 144.52V144.58C81.7696 144.483 81.8433 144.392 81.9254 144.31C82.3763 143.778 82.9877 143.319 83.581 142.874L83.5811 142.874C84.3036 142.332 84.9993 141.81 85.3453 141.2L85.8952 140.44L86.1452 140.1C86.3716 139.898 86.3364 139.985 86.2911 140.096C86.2444 140.211 86.187 140.352 86.3952 140.23C86.8252 139.55 87.2731 139.142 87.7032 138.75L87.7032 138.75C88.0632 138.422 88.4107 138.106 88.7251 137.65C89.3144 137.511 89.9562 136.803 90.6043 136.089C91.1218 135.518 91.6432 134.943 92.1449 134.65L92.0049 134.6C92.0886 134.394 92.2015 134.362 92.3219 134.328C92.3884 134.309 92.4573 134.29 92.5249 134.24C92.4777 134.216 92.4017 134.251 92.344 134.277C92.2792 134.306 92.2373 134.325 92.2849 134.24C93.5402 132.853 95.0312 131.543 96.5144 130.239L96.5145 130.239C97.1697 129.664 97.8234 129.089 98.4545 128.51C98.7869 128.2 98.809 127.988 98.8297 127.789C98.8558 127.538 98.8797 127.309 99.5145 126.93L99.4245 127.35C99.8184 126.842 100.242 126.357 100.694 125.9C101.751 124.916 102.752 123.874 103.694 122.78C103.694 122.91 103.694 122.96 103.554 123.1C103.984 122.93 104.674 121.99 104.554 121.89C104.692 121.758 104.715 121.784 104.752 121.826C104.777 121.855 104.808 121.89 104.884 121.89C105.076 121.779 105.227 121.545 105.366 121.331C105.502 121.121 105.626 120.93 105.764 120.89V120.98C105.835 120.894 105.934 120.793 106.032 120.692C106.278 120.439 106.519 120.191 106.304 120.22C106.614 119.981 106.867 119.704 107.104 119.444C107.334 119.192 107.548 118.957 107.784 118.79C107.835 118.586 108.055 118.39 108.26 118.207C108.497 117.996 108.714 117.801 108.634 117.63C108.834 117.91 109.764 116.89 109.994 116.43C109.994 116.525 110.087 116.472 110.175 116.422C110.262 116.372 110.344 116.325 110.324 116.43C110.714 116.04 111.024 115.64 110.824 115.58C111.308 115.377 111.605 114.981 111.873 114.624C112.158 114.243 112.411 113.905 112.824 113.89C113.824 112.61 114.824 111.46 115.824 110.38C115.922 110.513 115.656 110.795 115.394 111.072C115.123 111.36 114.856 111.643 115.004 111.75C115.672 110.761 116.432 109.837 117.274 108.99C117.554 108.77 117.274 109.23 117.194 109.36C117.61 108.848 118.058 108.404 118.494 107.972L118.495 107.972C118.979 107.492 119.449 107.026 119.843 106.5C119.816 106.586 119.776 106.667 119.723 106.74C119.763 106.698 119.808 106.656 119.852 106.614C119.998 106.477 120.133 106.349 120.033 106.28L119.893 106.48C119.682 106.48 119.922 106.014 120.096 105.677C120.177 105.52 120.243 105.391 120.243 105.35C120.243 105.617 120.442 105.473 120.65 105.323C120.894 105.146 121.151 104.961 121.113 105.42C121.203 105.29 121.293 105.09 121.193 105.05C121.383 104.9 121.483 104.89 121.393 105.14C121.653 104.823 121.717 104.679 121.77 104.556C121.83 104.419 121.878 104.31 122.173 104.02V104.32C122.36 103.855 122.663 103.445 123.053 103.13C123.053 103.13 123.113 103.13 123.053 103.24C123.651 102.394 124.32 101.601 125.053 100.87C125.053 101.136 125.162 101.049 125.301 100.937C125.419 100.843 125.559 100.731 125.673 100.8L126.093 100.26L125.803 100.36C125.978 100.185 126.119 99.9939 126.254 99.8098C126.443 99.5527 126.622 99.309 126.873 99.14L126.643 99.53L127.383 98.71L126.873 99.08C127.021 98.8346 126.968 98.7714 126.928 98.7247C126.883 98.6705 126.855 98.6385 127.183 98.37C127.152 98.4151 127.193 98.3796 127.274 98.3095C127.426 98.1773 127.721 97.9219 127.943 97.85C128.083 97.5323 128.304 97.2566 128.583 97.05C128.667 97.05 128.707 97.137 128.741 97.2122C128.769 97.272 128.793 97.3244 128.833 97.32C128.833 97.1342 129.065 96.8828 129.306 96.6215L129.306 96.6215C129.545 96.3625 129.793 96.094 129.833 95.87L128.603 96ZM48.5576 175.52C48.5431 175.562 48.5431 175.608 48.5576 175.65L48.8276 175.33C48.7776 175.32 48.6976 175.34 48.5576 175.52ZM51.2277 174.92C51.1377 174.92 51.1277 174.83 51.2277 174.73H51.2977L51.3777 174.67L51.4877 174.61L51.6077 174.53C51.5677 174.575 51.5102 174.632 51.4439 174.699L51.4437 174.699L51.4432 174.699C51.3771 174.766 51.3024 174.84 51.2277 174.92Z" fill="#202020"/>
<path fill-rule="evenodd" clip-rule="evenodd" d="M129.843 96.22V96H129.713C129.703 96.12 129.793 96.23 129.843 96.22Z" fill="#202020"/>
<path fill-rule="evenodd" clip-rule="evenodd" d="M144.152 103.29L144.322 103.16C144.603 102.964 144.844 102.716 145.032 102.43V103.64L144.925 103.774L144.925 103.774C144.519 104.282 144.104 104.801 143.672 105.27C143.489 105.294 143.603 105.165 143.727 105.025C143.86 104.874 144.005 104.71 143.802 104.71C143.399 105.017 143.068 105.387 142.732 105.763L142.732 105.763C142.442 106.086 142.149 106.414 141.802 106.71C141.866 106.618 141.885 106.591 141.89 106.562C141.892 106.55 141.892 106.537 141.892 106.52C141.483 106.817 141.555 106.833 141.643 106.854C141.727 106.873 141.826 106.896 141.533 107.17C141.483 107.01 141.433 107.02 141.193 107.17V107.48C141.147 107.465 141.111 107.431 141.092 107.387C141.082 107.363 141.077 107.338 141.078 107.312C141.012 107.526 140.781 107.776 140.559 108.016L140.559 108.016C140.321 108.275 140.093 108.522 140.093 108.7C140.046 108.709 140.019 108.651 139.989 108.586C139.955 108.512 139.917 108.43 139.843 108.43C139.558 108.638 139.334 108.918 139.193 109.24C138.978 109.305 138.682 109.561 138.53 109.693C138.448 109.764 138.408 109.799 138.443 109.75C138.108 110.02 138.135 110.054 138.18 110.11C138.218 110.157 138.27 110.221 138.123 110.46L138.643 110.09L137.893 110.91L138.123 110.52C137.883 110.685 137.705 110.926 137.519 111.178C137.379 111.367 137.233 111.564 137.053 111.74L137.343 111.65L136.923 112.18C136.813 112.112 136.675 112.224 136.556 112.321C136.415 112.435 136.303 112.526 136.303 112.26C135.58 112.977 134.921 113.756 134.333 114.588C134.337 114.572 134.329 114.561 134.32 114.55C134.312 114.54 134.303 114.528 134.303 114.51C133.917 114.831 133.618 115.244 133.433 115.71V115.4C133.14 115.688 133.093 115.798 133.035 115.934C132.982 116.059 132.92 116.206 132.653 116.53C132.743 116.27 132.643 116.28 132.463 116.43C132.553 116.48 132.463 116.67 132.373 116.8C132.411 116.346 132.154 116.532 131.909 116.708C131.701 116.859 131.503 117.002 131.503 116.74C131.503 116.777 131.441 116.895 131.364 117.041C131.188 117.376 130.933 117.86 131.163 117.86L131.303 117.67C131.401 117.738 131.273 117.856 131.131 117.987L131.131 117.987C131.084 118.031 131.035 118.075 130.993 118.12C131.046 118.055 131.087 117.98 131.113 117.9C130.721 118.411 130.26 118.865 129.786 119.333C129.341 119.772 128.885 120.222 128.463 120.74C128.543 120.62 128.833 120.15 128.543 120.37C127.708 121.222 126.948 122.146 126.273 123.13C126.127 123.024 126.392 122.746 126.664 122.461C126.93 122.183 127.202 121.898 127.103 121.76C126.103 122.85 125.103 124 124.103 125.27C123.691 125.291 123.438 125.628 123.152 126.009C122.884 126.366 122.588 126.762 122.104 126.97C122.294 127.02 121.984 127.42 121.604 127.81C121.619 127.697 121.528 127.748 121.437 127.8C121.351 127.848 121.264 127.897 121.264 127.81C121.034 128.26 120.104 129.28 119.904 129.01C119.984 129.181 119.767 129.372 119.531 129.58C119.325 129.761 119.105 129.955 119.054 130.16C118.826 130.325 118.615 130.558 118.389 130.806C118.149 131.071 117.893 131.353 117.584 131.59C117.783 131.563 117.576 131.78 117.351 132.016L117.351 132.016L117.351 132.016C117.237 132.135 117.118 132.259 117.044 132.36V132.26C116.898 132.3 116.769 132.496 116.629 132.71C116.491 132.919 116.342 133.146 116.154 133.26C116.078 133.26 116.047 133.226 116.022 133.199C115.985 133.159 115.962 133.134 115.824 133.26C115.944 133.37 115.254 134.3 114.824 134.48C114.954 134.34 114.954 134.28 114.954 134.16C114.37 134.905 113.667 135.599 112.956 136.299C112.17 137.074 111.375 137.858 110.724 138.73L110.804 138.3C110.17 138.684 110.145 138.916 110.119 139.166C110.099 139.364 110.077 139.574 109.744 139.88C109.113 140.459 108.46 141.033 107.804 141.609L107.804 141.609L107.804 141.609L107.804 141.609C106.321 142.913 104.83 144.223 103.575 145.61C103.527 145.695 103.569 145.676 103.634 145.647C103.691 145.621 103.767 145.586 103.815 145.61C103.745 145.665 103.676 145.686 103.609 145.707C103.493 145.743 103.384 145.777 103.295 145.98H103.445C102.587 146.645 101.802 147.399 101.105 148.23C100.811 148.557 100.44 148.805 100.025 148.95C99.7124 149.398 99.3652 149.711 99.0054 150.035C98.5705 150.427 98.1172 150.836 97.6849 151.52C97.4758 151.642 97.5346 151.5 97.5814 151.386C97.6264 151.277 97.6603 151.194 97.4349 151.4L96.6349 152.49C96.3091 153.081 95.6126 153.604 94.8847 154.151L94.8846 154.151C94.1828 154.678 93.4516 155.227 92.9951 155.88V155.81C92.9551 155.72 92.4952 155.93 92.4752 156.09C92.4592 156.218 92.5515 156.18 92.6758 156.129C92.7072 156.116 92.7408 156.102 92.7752 156.09C92.1764 156.855 91.5354 157.586 90.8553 158.28C90.9881 158.046 90.864 158.129 90.693 158.242C90.5422 158.343 90.3549 158.467 90.2753 158.42C90.2182 158.542 90.2509 158.568 90.2825 158.593C90.3285 158.63 90.3722 158.664 90.1353 158.99C89.5007 159.593 88.833 160.161 88.1354 160.69C88.0913 160.83 88.0117 160.956 87.9413 161.068C87.8363 161.234 87.7516 161.368 87.8354 161.47C87.4848 161.821 87.2193 162.114 86.9428 162.419L86.9428 162.419L86.9427 162.419C86.6198 162.776 86.2818 163.149 85.7755 163.65H85.7055C85.6497 163.896 85.3661 164.092 85.1144 164.265C84.9155 164.403 84.7365 164.526 84.7056 164.65C84.7056 164.619 84.7149 164.58 84.7241 164.542C84.7416 164.469 84.7582 164.4 84.7056 164.4L84.3456 164.89C84.4856 164.67 84.4256 164.34 84.0556 164.67C84.0056 164.85 84.0056 164.9 84.0056 164.9H83.8956C83.6456 165.18 83.7556 165.46 84.1456 165.18C83.7246 165.597 83.3236 166.029 82.9319 166.452L82.9319 166.452C82.4491 166.973 81.9805 167.478 81.5058 167.92V167.72C81.113 168.228 80.6361 168.664 80.0958 169.01C80.1019 169.025 80.1015 169.048 80.1011 169.072C80.1002 169.127 80.0992 169.19 80.1758 169.19C79.9854 169.538 79.9253 169.516 79.8617 169.493C79.8169 169.477 79.7705 169.46 79.6757 169.572C79.7359 169.473 79.7359 169.388 79.7359 169.34L78.7359 170.6C78.188 170.781 77.7118 171.131 77.376 171.6C77.406 171.67 77.606 171.59 77.736 171.48L77.466 171.83H77.036V171.91L76.806 172.44L76.636 172.28C76.4894 172.456 76.4359 172.627 76.3869 172.784C76.3356 172.949 76.2892 173.097 76.1461 173.22C75.5939 173.674 74.9937 174.067 74.3562 174.39C74.4821 174.604 74.1465 174.91 73.8169 175.211C73.5445 175.46 73.2762 175.705 73.2762 175.89C71.9739 176.902 70.7535 178.016 69.6264 179.22L69.6964 179.1C69.3309 179.296 69.246 179.517 69.1549 179.755C69.0739 179.966 68.988 180.19 68.6965 180.42L68.7865 180.24C67.783 181.017 66.9205 181.961 66.2366 183.03C66.3266 182.83 66.0266 182.78 65.9466 183.03C65.9116 183.139 65.9934 183.161 66.0588 183.178C66.1428 183.2 66.1997 183.214 65.9466 183.4C66.0166 183.3 65.8666 183.31 65.7766 183.4L65.5566 183.93C64.355 184.849 63.2403 185.877 62.2268 187C62.03 187.115 62.0417 187.008 62.0522 186.91C62.0545 186.889 62.0568 186.868 62.0568 186.85C61.6384 187.3 61.2555 187.769 60.8839 188.224L60.8837 188.224L60.8832 188.225C60.5446 188.64 60.2153 189.043 59.8769 189.41L59.617 189.3C59.4647 189.452 59.452 189.565 59.4403 189.668C59.4244 189.809 59.4106 189.931 59.047 190.11C59.0012 190.138 59.0299 190.107 59.0863 190.045C59.19 189.932 59.387 189.716 59.387 189.58C58.8984 189.9 58.8548 190.053 58.8035 190.232C58.7603 190.383 58.7115 190.554 58.387 190.86V190.47C57.8778 190.776 57.8596 191.026 57.8419 191.269C57.837 191.336 57.8322 191.403 57.817 191.47C57.7392 191.649 57.6149 191.805 57.4571 191.92C56.828 191.864 56.2055 191.75 55.5972 191.58C55.6711 191.494 55.7494 191.407 55.8275 191.32L55.8277 191.319L55.8279 191.319L55.8279 191.319C56.0135 191.112 56.1975 190.906 56.3171 190.73C56.3051 190.796 56.2464 190.869 56.1819 190.95C56.1388 191.003 56.0932 191.06 56.0571 191.12C56.0879 191.112 56.1207 191.112 56.1553 191.111C56.2555 191.11 56.3708 191.108 56.4971 190.93C56.9586 190.014 57.5666 189.18 58.297 188.46C58.4026 188.48 58.6394 188.364 58.9162 188.228C59.1902 188.093 59.5033 187.94 59.7669 187.88L59.7709 187.864C59.8019 187.741 59.8569 187.521 59.8569 187.32C60.1319 187.169 60.3392 186.918 60.4369 186.62L59.8669 187.21L59.7769 187.32C59.597 187.47 59.597 187.55 59.597 187.55C59.3726 187.636 59.3832 187.584 59.4003 187.499C59.413 187.436 59.4292 187.355 59.357 187.3C59.4168 187.243 59.4883 187.166 59.5647 187.085C59.7951 186.838 60.0693 186.545 60.1969 186.59C60.3283 186.467 60.4687 186.353 60.6169 186.25C60.687 186.131 60.7785 186.026 60.8869 185.94V186C60.9228 186.01 60.9609 186.01 60.9969 186C61.4786 185.486 61.8646 184.89 62.1368 184.24C62.0223 184.59 62.1708 184.547 62.3327 184.501C62.4253 184.474 62.5222 184.446 62.5768 184.49C62.5768 184.525 62.3449 184.748 62.0288 185.052L62.0287 185.052L62.0286 185.052L62.0281 185.053C61.8896 185.186 61.7351 185.335 61.5768 185.49C61.6294 185.46 61.6942 185.46 61.7468 185.49C62.0735 185.309 62.2562 185.06 62.4638 184.777C62.6692 184.497 62.899 184.183 63.3167 183.87C63.3167 183.889 63.3074 183.917 63.2978 183.946C63.2775 184.006 63.2557 184.07 63.3167 184.07C63.5448 183.901 63.6903 183.643 63.7167 183.36C63.9167 183.43 64.5667 182.97 64.7867 182.64C64.8419 182.321 65.0172 182.034 65.2766 181.84L65.1866 182.13C65.4907 181.903 65.5564 181.762 65.6168 181.632C65.6652 181.528 65.7104 181.431 65.8721 181.304C65.7997 181.363 65.8787 181.448 65.9866 181.36C66.3093 181.016 66.5338 180.591 66.6366 180.13L66.7166 180.35C67.0547 179.833 67.684 178.884 67.9332 178.929C67.6812 178.757 68.4144 178.112 68.9143 177.671C69.0339 177.566 69.1402 177.473 69.2164 177.4C69.0864 177.54 69.1464 177.68 69.1464 177.68C69.8864 176.733 70.7356 175.877 71.6763 175.13L72.0363 175.22C72.2485 174.998 72.2839 174.751 72.3198 174.5C72.3583 174.231 72.3974 173.959 72.6562 173.71L72.5862 174C73.1859 173.349 73.8236 172.735 74.4961 172.16L74.6261 172.33C74.7304 172.116 74.8783 171.922 75.0212 171.734L75.0212 171.734C75.125 171.598 75.2262 171.465 75.3061 171.33C75.775 171.227 76.2602 170.663 76.8011 170.034L76.8011 170.034L76.8012 170.034C77.2061 169.564 77.6422 169.057 78.1259 168.68C78.3337 168.501 78.5661 168.353 78.8159 168.24L78.5959 167.9C78.6752 167.825 78.7559 167.743 78.8375 167.661C79.178 167.318 79.5332 166.96 79.8559 166.96L79.7659 167.05C79.9048 167.254 80.1708 166.864 80.3506 166.6L80.3507 166.6L80.3512 166.599C80.3911 166.541 80.4268 166.488 80.4558 166.45C80.6158 166.24 80.6658 165.92 80.4558 166.03C81.069 165.537 81.6533 165.01 82.2057 164.45C82.7257 163.879 83.3291 163.39 83.9956 163C84.8512 161.874 85.7798 160.805 86.7755 159.8V159.85L86.7992 159.831C87.236 159.475 88.0596 158.804 88.2854 159.04C88.5837 158.699 88.7965 158.363 89.0086 158.027L89.0086 158.027C89.344 157.497 89.6777 156.969 90.3453 156.43L90.2253 156.73C90.4928 156.493 90.7133 156.208 90.8753 155.89C90.9753 155.81 90.9753 155.92 90.9753 155.97C91.1772 155.866 91.2518 155.715 91.3263 155.564C91.3661 155.484 91.406 155.403 91.4652 155.33V155.49C92.0144 155.116 92.5963 154.414 93.1912 153.696C93.5821 153.225 93.9786 152.747 94.3751 152.35C94.2405 152.527 94.3535 152.519 94.4583 152.513L94.4823 152.511C94.4937 152.51 94.5047 152.51 94.5151 152.51C94.6204 152.032 95.2439 151.362 95.7303 150.839C95.9364 150.618 96.1179 150.423 96.225 150.28L96.065 150.64C96.3793 150.146 96.6265 150.04 96.8747 149.934C97.1239 149.828 97.3743 149.721 97.6949 149.22L97.0749 149.54C97.4849 149.25 97.6849 148.88 97.4849 148.88C97.691 148.751 97.7662 148.761 97.8332 148.769C97.9222 148.78 97.9968 148.79 98.3449 148.47C98.3891 148.492 98.3219 148.587 98.2573 148.677C98.1759 148.792 98.0986 148.9 98.2549 148.85L99.2548 148.23C99.3048 148.23 99.4148 148.13 99.6548 147.85C99.4598 147.72 99.6222 147.548 99.7435 147.419C99.8647 147.29 99.9448 147.205 99.5848 147.25C100.021 146.793 100.472 146.4 100.905 146.021C101.117 145.835 101.325 145.654 101.525 145.47C101.964 145.089 102.363 144.664 102.715 144.2C103.047 144.159 103.489 143.743 103.9 143.357C104.38 142.906 104.817 142.495 104.984 142.77C105.47 142.333 105.846 141.788 106.084 141.18C106.004 141.246 105.933 141.322 105.872 141.405C106.12 141.021 106.42 140.672 106.764 140.37C106.414 140.864 106.109 141.39 105.854 141.94C106.211 141.521 106.622 140.911 106.895 140.503C106.975 140.385 107.043 140.284 107.094 140.21L107.434 140.29C107.565 140.01 107.692 139.956 107.815 139.905C107.946 139.849 108.07 139.796 108.184 139.47H108.034C108.467 139.075 108.607 138.821 108.755 138.552C108.881 138.323 109.013 138.084 109.334 137.74V137.85C109.434 137.771 109.52 137.65 109.609 137.523C109.77 137.295 109.941 137.052 110.224 137.02L109.754 137.5C109.89 137.564 110.147 137.435 110.37 137.324C110.46 137.278 110.545 137.236 110.614 137.21C110.884 136.894 110.817 136.804 110.761 136.729C110.722 136.677 110.689 136.632 110.784 136.52C110.927 136.538 110.921 136.552 110.893 136.626C110.874 136.676 110.844 136.754 110.844 136.88C111.405 136.278 111.885 135.605 112.274 134.88V134.94C112.548 134.685 112.752 134.388 112.939 134.118C113.162 133.795 113.358 133.511 113.614 133.38L113.524 133.51C113.834 133.39 114.075 133.084 114.289 132.813C114.537 132.498 114.747 132.231 114.984 132.36C115.086 132.303 115.035 132.359 114.962 132.441C114.84 132.576 114.654 132.782 114.984 132.67C115.396 132.367 115.426 132.177 115.455 131.995C115.483 131.823 115.509 131.658 115.854 131.41V131.53C116.284 131.08 116.834 130.47 117.284 129.94C117.709 129.789 118.134 129.341 118.575 128.877C119.035 128.392 119.512 127.889 120.024 127.69C119.744 127.75 120.024 127.34 120.024 127.34C120.244 127.1 120.244 126.96 120.244 126.82C120.415 126.759 120.578 126.52 120.723 126.307C120.839 126.136 120.944 125.981 121.034 125.95C120.976 125.885 121.113 125.752 121.286 125.585C121.324 125.549 121.364 125.51 121.404 125.47C121.183 125.786 121.229 125.832 121.283 125.885C121.32 125.921 121.36 125.961 121.324 126.09C121.671 125.777 121.786 125.51 121.901 125.243C122.021 124.965 122.14 124.687 122.524 124.36L123.044 124.12C122.963 123.94 123.214 123.655 123.395 123.451C123.504 123.327 123.588 123.233 123.553 123.21C123.593 123.197 123.633 123.181 123.674 123.164C123.819 123.106 123.961 123.048 124.023 123.15C124.118 123.014 124.263 122.881 124.399 122.755C124.594 122.576 124.773 122.411 124.773 122.27L124.433 122.49C124.937 122.097 125.238 121.697 125.515 121.328C125.787 120.965 126.036 120.633 126.433 120.37L126.733 120.7C127.004 120.553 127.161 120.323 127.313 120.101C127.482 119.855 127.644 119.62 127.943 119.52C127.914 119.525 127.889 119.53 127.869 119.534C127.835 119.542 127.814 119.546 127.807 119.539C127.797 119.527 127.816 119.49 127.861 119.399C127.882 119.356 127.91 119.301 127.943 119.23C127.842 119.305 127.73 119.45 127.605 119.611C127.494 119.754 127.374 119.909 127.243 120.04L127.633 119.29L126.813 120.29C126.858 120.211 126.896 120.147 126.927 120.094C127.009 119.954 127.043 119.897 127.027 119.876C127.016 119.861 126.983 119.863 126.927 119.866C126.896 119.868 126.858 119.87 126.813 119.87C127.04 119.545 127.228 119.428 127.41 119.316C127.596 119.201 127.775 119.089 127.983 118.76C128.1 118.687 128.138 118.723 128.179 118.76C128.223 118.8 128.269 118.842 128.413 118.76C128.592 118.48 128.863 118.312 129.115 118.156C129.386 117.988 129.635 117.834 129.723 117.57C129.792 117.536 129.75 117.598 129.701 117.67C129.65 117.744 129.592 117.83 129.643 117.83C129.712 117.743 129.778 117.665 129.839 117.594C130.016 117.385 130.143 117.234 130.143 117.1L129.843 117.33C129.932 117.245 129.976 117.169 130.022 117.088C130.101 116.952 130.187 116.802 130.513 116.57C130.673 116.29 130.693 116.02 130.513 116.13C130.643 116.05 130.843 115.99 130.843 116.13C131.171 115.802 131.187 115.635 131.201 115.494C131.216 115.339 131.228 115.218 131.653 114.95V115.06C131.771 114.973 131.879 114.872 131.973 114.76C131.83 114.948 131.909 114.968 131.978 114.985C132.064 115.006 132.134 115.024 131.753 115.35C131.897 115.404 132.07 115.216 132.248 115.023C132.367 114.895 132.487 114.764 132.603 114.7C132.731 114.438 132.642 114.386 132.561 114.339C132.503 114.306 132.45 114.274 132.483 114.17C132.523 114.218 132.621 114.138 132.756 114.026L132.756 114.026C132.79 113.999 132.825 113.97 132.863 113.94H132.573C132.728 113.793 132.868 113.633 132.993 113.46L132.763 113.79C133.307 113.486 133.786 113.078 134.173 112.59C134.083 112.78 133.903 113.17 134.323 112.87C134.612 112.496 134.634 112.52 134.678 112.568C134.711 112.604 134.757 112.654 134.943 112.55C135.185 112.287 135.195 112.191 135.205 112.104C135.218 111.989 135.229 111.889 135.763 111.44C135.853 111.37 135.693 111.38 135.563 111.44C135.879 111.186 136.096 110.961 136.313 110.736C136.481 110.562 136.649 110.388 136.863 110.2C136.723 110.28 136.683 110.27 136.863 110C136.838 110.149 137.064 109.966 137.307 109.77C137.454 109.651 137.607 109.527 137.713 109.47V109.35C137.978 109.246 137.848 109.429 137.732 109.593L137.713 109.62C137.693 109.6 137.623 109.63 137.523 109.74C137.293 110.07 137.713 110.33 138.103 109.79C138.493 109.25 138.243 109.18 138.103 109.18C138.442 108.899 138.52 108.679 138.595 108.468C138.673 108.249 138.747 108.039 139.103 107.78C139.565 107.559 140.01 107.301 140.433 107.01C140.473 106.821 140.301 106.942 140.139 107.056C139.984 107.164 139.839 107.266 139.903 107.08C140.48 106.879 140.807 106.406 141.163 105.893C141.479 105.436 141.817 104.948 142.372 104.59L142.432 104.89C142.681 104.676 142.914 104.445 143.132 104.2L142.702 104.43C142.892 104.17 143.412 103.67 143.412 103.98C143.598 103.625 143.869 103.323 144.202 103.1L144.482 102.88L144.232 103.11C144.22 103.175 144.192 103.237 144.152 103.29ZM105.764 141.58C105.799 141.521 105.835 141.463 105.872 141.405C105.832 141.46 105.796 141.519 105.764 141.58ZM79.6159 169.65C79.6406 169.623 79.6602 169.597 79.6757 169.572C79.6576 169.593 79.6378 169.619 79.6159 169.65ZM134.303 114.63C134.321 114.612 134.33 114.598 134.333 114.588L134.303 114.63ZM84.2352 164.93H84.0652C84.0856 164.93 84.1163 164.914 84.1465 164.898C84.2052 164.867 84.2616 164.838 84.2352 164.93ZM59.8668 187C59.8567 186.968 59.8567 186.933 59.8668 186.9C59.9968 186.72 60.0768 186.7 60.1368 186.7C60.1695 186.7 60.1248 186.742 60.0563 186.806L60.0562 186.806C59.9992 186.859 59.9258 186.927 59.8668 187ZM62.537 186.07C62.437 186.17 62.457 186.27 62.537 186.27L62.957 185.84C62.787 185.93 62.537 186.07 62.537 186.07Z" fill="#202020"/>
<path fill-rule="evenodd" clip-rule="evenodd" d="M144.992 124.42V126.42C144.855 126.618 144.738 126.829 144.642 127.05C144.642 126.93 144.732 126.8 144.642 126.74C144.082 127.3 144.412 127.2 143.862 127.87C143.942 127.62 143.862 127.63 143.662 127.77C143.762 127.77 143.662 128.01 143.582 128.15C143.642 127.3 142.742 128.66 142.712 128.08C142.712 128.25 142.082 129.18 142.352 129.21C141.612 130.21 140.582 131 139.702 132.07C139.752 131.95 140.072 131.48 139.792 131.7C138.956 132.551 138.196 133.475 137.522 134.46C137.222 134.26 138.522 133.37 138.342 133.09C137.342 134.18 136.392 135.33 135.343 136.61C134.573 136.61 134.343 137.88 133.343 138.3C133.533 138.36 133.223 138.76 132.843 139.15C132.843 138.91 132.463 139.32 132.503 139.15C132.283 139.6 131.353 140.63 131.153 140.35C131.293 140.67 130.413 141.06 130.293 141.51C129.783 141.85 129.433 142.51 128.823 142.94C129.123 142.94 128.533 143.4 128.293 143.7C128.293 143.65 128.293 143.6 128.293 143.61C128.003 143.61 127.793 144.33 127.413 144.56C127.223 144.64 127.313 144.39 127.073 144.56C127.173 144.67 126.483 145.56 126.073 145.78C126.213 145.64 126.163 145.59 126.213 145.46C124.963 147.07 123.213 148.37 121.973 150.04L122.053 149.6C120.923 150.29 121.743 150.49 121.053 151.19C118.993 153.08 116.694 154.87 114.874 156.91C114.784 157.11 115.024 156.91 115.114 156.91C114.934 157.06 114.734 156.91 114.604 157.28H114.744C113.614 157.9 112.374 159.99 111.324 160.28C110.634 161.28 109.784 161.61 108.984 162.86C108.584 163.09 109.204 162.32 108.744 162.73L107.944 163.83V163.76C107.314 164.96 105.214 165.86 104.274 167.21V167.15C104.274 167.06 103.924 167.21 103.754 167.42C103.754 167.53 103.884 167.42 104.054 167.42C103.455 168.185 102.814 168.916 102.134 169.61C102.384 169.16 101.724 169.85 101.554 169.75C101.434 170.05 101.824 169.75 101.424 170.31C100.792 170.916 100.124 171.484 99.4244 172.01C99.3245 172.36 98.9945 172.62 99.1245 172.79C98.3745 173.56 98.0045 174.04 97.1246 174.97H97.0446C96.9846 175.4 96.1446 175.68 96.0446 175.97C96.0446 175.88 96.0446 175.75 96.0446 175.73L95.6747 176.21C95.8246 175.96 95.7646 175.66 95.3947 175.99C95.1647 176.49 95.5847 175.99 95.5147 176.27L95.2247 176.2C94.9747 176.5 95.0947 176.77 95.4747 176.49C94.5447 177.42 93.7048 178.42 92.8448 179.23V179.03C92.4467 179.535 91.9708 179.974 91.4349 180.33C91.4349 180.33 91.4349 180.54 91.5149 180.51C91.1749 181.1 91.2349 180.6 90.9949 180.89C90.9949 180.79 91.0849 180.71 91.0649 180.65L90.065 181.91C89.5137 182.089 89.0339 182.44 88.695 182.91C88.695 182.97 88.925 182.91 89.055 182.79L88.795 183.13H88.3651L88.0951 183.74L87.9251 183.59C87.6351 183.94 87.7151 184.28 87.4351 184.53C86.8848 184.984 86.2842 185.373 85.6452 185.69C85.8752 186.08 84.5253 186.79 84.5753 187.19C83.2933 188.219 82.0962 189.349 80.9954 190.57L81.0654 190.44C80.4055 190.81 80.7155 191.27 80.0655 191.77L80.1655 191.58C79.9738 191.704 79.7932 191.845 79.6255 192H77.7656C77.7656 191.86 77.8656 191.71 77.9456 191.46L78.0256 191.68C78.3756 191.16 79.0256 190.17 79.2555 190.27C78.8956 190.07 80.1355 189.11 80.5255 188.73C80.45 188.802 80.4228 188.911 80.4555 189.01C81.199 188.063 82.0515 187.207 82.9953 186.46L83.3453 186.55C83.7853 186.09 83.4753 185.55 83.9653 185.05L83.8953 185.33C84.5023 184.667 85.1466 184.039 85.8252 183.45L85.9652 183.61C86.1452 183.29 86.4552 182.98 86.6351 182.61C87.5651 182.41 88.695 180.16 90.145 179.53L89.935 179.18C90.3349 178.79 90.7849 178.18 91.1849 178.25L91.0949 178.33C91.2649 178.59 91.4949 177.94 91.7949 177.74C92.0948 177.54 92.0049 177.2 91.7949 177.32C92.9948 176.4 94.4147 174.69 95.3247 174.32C96.1659 173.159 97.0776 172.05 98.0545 171V171.05C98.4745 170.7 99.3245 170 99.5544 170.24C100.324 169.36 100.554 168.51 101.614 167.64L101.494 167.94C101.757 167.696 101.98 167.413 102.154 167.1C102.244 167.01 102.224 167.1 102.244 167.17C102.564 167.01 102.574 166.75 102.734 166.54V166.69C103.674 166.07 104.594 164.52 105.644 163.55C105.474 163.76 105.644 163.75 105.774 163.71C105.934 163.04 107.124 161.97 107.484 161.49L107.324 161.85C107.984 160.85 108.324 161.41 108.954 160.42L108.334 160.74C108.714 160.45 108.944 160.12 108.754 160.08C109.224 159.78 108.994 160.24 109.604 159.68C109.704 159.73 109.234 160.15 109.524 160.05L110.524 159.44C110.524 159.44 110.674 159.34 110.924 159.05C110.524 158.8 111.574 158.36 110.854 158.45C111.959 157.499 113.005 156.481 113.984 155.4C114.694 155.32 115.984 153.47 116.244 153.97C116.728 153.53 117.108 152.987 117.353 152.38C117.212 152.488 117.099 152.629 117.023 152.79C117.285 152.332 117.623 151.923 118.023 151.58C117.671 152.07 117.366 152.592 117.113 153.14C117.562 152.587 117.979 152.009 118.363 151.41L118.703 151.5C118.973 150.92 119.223 151.31 119.443 150.68H119.303C120.093 149.92 119.893 149.68 120.593 148.95L120.643 149.06C120.923 148.85 121.103 148.28 121.533 148.23L121.063 148.71C121.263 148.81 121.683 148.51 121.923 148.42C122.383 147.88 121.863 148.01 122.093 147.74C122.333 147.74 122.193 147.74 122.153 148.09C122.715 147.489 123.196 146.816 123.583 146.09C124.193 145.53 124.453 144.77 124.933 144.53L124.833 144.67C125.503 144.4 125.833 143.27 126.293 143.52C126.583 143.36 125.783 144.01 126.293 143.82C127.093 143.24 126.463 143.07 127.163 142.56C127.073 142.63 127.163 142.63 127.163 142.69C127.593 142.24 128.163 141.62 128.603 141.1C129.473 140.78 130.353 139.22 131.353 138.85C131.083 138.92 131.353 138.58 131.353 138.49C131.353 138.4 131.353 138.54 131.403 138.49C131.663 138.25 131.583 138.11 131.633 137.97C131.933 137.86 132.213 137.17 132.413 137.1C132.343 137.03 132.563 136.85 132.783 136.63C132.423 137.15 132.783 136.92 132.713 137.24C133.413 136.61 133.153 136.15 133.913 135.52L134.433 135.27C134.303 134.98 135.023 134.42 134.933 134.36C135.123 134.36 135.333 134.17 135.412 134.3C135.642 133.97 136.162 133.66 136.152 133.42L135.822 133.65C136.762 132.87 136.972 132.05 137.772 131.53L138.072 131.85C138.642 131.54 138.722 130.85 139.292 130.68C139.052 130.68 139.052 130.77 139.232 130.38C139.042 130.53 138.812 130.92 138.532 131.19L138.932 130.44L138.112 131.44C138.382 130.92 138.382 130.98 138.112 131.01C138.572 130.35 138.872 130.56 139.282 129.9C139.522 129.75 139.432 130.06 139.722 129.9C140.032 129.39 140.652 129.25 140.932 128.9C140.932 128.9 140.932 128.96 140.932 128.97C141.212 128.63 141.442 128.42 141.442 128.24L141.142 128.47C141.382 128.25 141.292 128.08 141.802 127.71C141.982 127.39 141.972 127.09 141.692 127.36C141.792 127.23 142.122 127.07 142.132 127.25C142.822 126.56 142.132 126.58 142.932 126.07C142.932 126.12 142.872 126.19 142.932 126.18C143.047 126.093 143.154 125.996 143.252 125.89C142.932 126.31 143.732 125.89 143.032 126.47C143.282 126.56 143.602 125.98 143.882 125.82C144.112 125.37 143.682 125.55 143.772 125.29C143.822 125.35 143.962 125.21 144.142 125.07H143.862C144.017 124.923 144.157 124.763 144.282 124.59L144.042 124.93C144.262 124.9 144.642 124.72 144.992 124.42Z" fill="#202020"/>
<path fill-rule="evenodd" clip-rule="evenodd" d="M140.993 129C141.029 128.959 141.056 128.912 141.073 128.86C141.133 128.81 140.993 128.91 140.993 129Z" fill="#202020"/>
<path fill-rule="evenodd" clip-rule="evenodd" d="M142.583 129C142.713 129.09 142.443 129.27 142.283 129.45C142.339 129.379 142.38 129.297 142.403 129.21H142.453L142.583 129Z" fill="#202020"/>
<path fill-rule="evenodd" clip-rule="evenodd" d="M144.993 149.52C144.919 149.569 144.843 149.613 144.763 149.65C144.953 149.65 144.643 150.1 144.253 150.49C144.253 150.26 143.883 150.66 143.923 150.49C143.693 150.94 142.763 151.96 142.563 151.68C142.703 152 141.823 152.4 141.713 152.84C141.193 153.18 140.843 153.84 140.233 154.27C140.533 154.27 139.943 154.73 139.703 155.03C139.703 154.98 139.703 154.93 139.703 154.94C139.423 154.94 139.203 155.67 138.823 155.89C138.633 155.98 138.723 155.73 138.493 155.94C138.593 156.05 137.893 156.94 137.493 157.15C137.633 157.01 137.583 156.96 137.633 156.83C136.383 158.44 134.633 159.74 133.393 161.41L133.483 160.98C132.343 161.66 133.173 161.86 132.423 162.56C130.363 164.45 128.064 166.25 126.254 168.29C126.164 168.48 126.394 168.29 126.494 168.29C126.304 168.43 126.114 168.34 125.974 168.66H126.124C124.984 169.28 123.754 171.37 122.704 171.66C122.004 172.66 121.154 172.99 120.364 174.24C119.954 174.48 120.574 173.7 120.114 174.11L119.314 175.21C118.654 176.36 116.654 177.21 115.714 178.53C115.714 178.44 115.354 178.6 115.194 178.8C115.034 179 115.324 178.8 115.484 178.8C114.886 179.562 114.248 180.293 113.574 180.99C113.824 180.55 113.164 181.23 112.994 181.13C112.864 181.43 113.254 181.13 112.854 181.7C112.218 182.301 111.55 182.868 110.854 183.4C110.744 183.74 110.414 184.01 110.544 184.17C109.794 184.94 109.435 185.42 108.495 186.36H108.425C108.355 186.8 107.515 187.08 107.425 187.36C107.425 187.26 107.425 187.14 107.425 187.11L107.065 187.6C107.205 187.34 107.145 187.05 106.775 187.38C106.685 187.56 106.695 187.61 106.775 187.61H106.665C106.405 187.9 106.525 188.17 106.915 187.89C105.975 188.82 105.135 189.83 104.275 190.63V190.43C103.873 190.936 103.394 191.375 102.855 191.73C102.855 191.73 102.855 191.95 102.935 191.91L102.835 192.07H100.145C100.542 191.612 101.024 191.235 101.565 190.96L101.345 190.62C101.745 190.22 102.205 189.62 102.605 189.68L102.505 189.77C102.685 190.02 102.915 189.37 103.205 189.17C103.495 188.97 103.415 188.63 103.205 188.75C104.405 187.84 105.825 186.12 106.735 185.75C107.571 184.6 108.48 183.505 109.455 182.47C109.884 182.12 110.724 181.47 110.964 181.66C111.734 180.78 111.964 179.94 113.024 179.06L112.894 179.36C113.167 179.126 113.392 178.841 113.554 178.52C113.644 178.44 113.624 178.52 113.644 178.59C113.964 178.44 113.974 178.17 114.144 177.96V178.12C115.084 177.49 116.004 175.94 117.054 174.97C116.894 175.18 117.054 175.17 117.194 175.14C117.344 174.46 118.534 173.39 118.904 172.91L118.744 173.27C119.394 172.27 119.744 172.83 120.374 171.85L119.754 172.16C120.124 171.88 120.364 171.54 120.164 171.51C120.634 171.21 120.414 171.66 121.024 171.1C121.114 171.15 120.654 171.57 120.934 171.47L121.934 170.86C121.934 170.86 122.084 170.76 122.334 170.47C121.934 170.22 122.984 169.79 122.264 169.88C123.367 168.927 124.412 167.908 125.394 166.83C126.114 166.74 127.394 164.89 127.664 165.4C128.142 164.956 128.517 164.414 128.763 163.81C128.631 163.92 128.522 164.056 128.443 164.21C128.708 163.754 129.045 163.345 129.443 163C129.093 163.494 128.788 164.02 128.533 164.57C128.993 164.02 129.533 163.17 129.773 162.84L130.113 162.92C130.383 162.34 130.633 162.73 130.853 162.1H130.713C131.503 161.33 131.313 161.1 132.003 160.36L132.053 160.48C132.343 160.26 132.513 159.7 132.943 159.64L132.483 160.12C132.673 160.22 133.103 159.92 133.333 159.84C133.803 159.3 133.273 159.42 133.503 159.15C133.753 159.15 133.603 159.2 133.563 159.51C134.128 158.911 134.609 158.238 134.993 157.51V157.57C135.603 157.01 135.873 156.25 136.343 156.01L136.253 156.14C136.913 155.88 137.253 154.74 137.703 154.99C137.993 154.84 137.193 155.48 137.703 155.29C138.483 154.73 137.903 154.56 138.533 154.08C138.533 154.08 138.533 154.08 138.533 154.16C138.973 153.71 139.533 153.09 139.973 152.57C140.843 152.25 141.713 150.71 142.713 150.32C142.463 150.32 142.713 150.05 142.713 149.96C142.973 149.72 142.893 149.58 142.943 149.44C143.253 149.34 143.533 148.64 143.723 148.58C143.653 148.5 143.873 148.32 144.103 148.1C143.733 148.63 144.103 148.4 144.023 148.71C144.623 148.17 144.523 147.76 144.963 147.24L144.993 149.52Z" fill="#202020"/>
<path fill-rule="evenodd" clip-rule="evenodd" d="M106.864 187.6H106.694C106.754 187.56 106.904 187.42 106.864 187.6Z" fill="#202020"/>
<path fill-rule="evenodd" clip-rule="evenodd" d="M144.992 170.52V172.36L144.702 172.72L144.782 172.28C143.642 172.97 144.472 173.17 143.722 173.86C141.662 175.75 139.362 177.55 137.552 179.59C137.462 179.78 137.702 179.59 137.792 179.59C137.602 179.74 137.412 179.59 137.272 179.96H137.422C136.283 180.59 135.053 182.68 134.003 182.96C133.313 183.96 132.463 184.28 131.663 185.53C131.253 185.77 131.873 185 131.413 185.41L130.613 186.5C129.953 187.66 127.903 188.56 126.973 189.89V189.82C126.973 189.73 126.613 189.89 126.453 190.1C126.293 190.31 126.583 190.1 126.753 190.1C125.953 191.1 125.683 191.39 125.103 192.01H122.823C123.186 191.365 123.66 190.79 124.223 190.31L124.103 190.61C124.371 190.373 124.591 190.088 124.753 189.77C124.843 189.69 124.833 189.77 124.853 189.85C125.163 189.69 125.183 189.43 125.343 189.21V189.37C126.343 188.75 127.213 187.2 128.253 186.23C128.093 186.44 128.253 186.43 128.393 186.39C128.543 185.72 129.743 184.64 130.103 184.16L129.943 184.52C130.593 183.52 130.943 184.09 131.573 183.1L130.953 183.42C131.333 183.13 131.563 182.8 131.363 182.76C131.843 182.46 131.613 182.91 132.223 182.35C132.323 182.35 131.853 182.82 132.133 182.73L133.133 182.11C133.133 182.11 133.283 182.02 133.523 181.73C133.133 181.47 134.173 181.04 133.453 181.13C134.556 180.177 135.601 179.158 136.582 178.08C137.302 177.99 138.582 176.14 138.852 176.65C139.338 176.213 139.714 175.668 139.952 175.06C139.819 175.17 139.71 175.306 139.632 175.46C139.899 175.006 140.236 174.597 140.632 174.25C140.281 174.744 139.977 175.27 139.722 175.82C140.182 175.28 140.722 174.42 140.972 174.09L141.302 174.17C141.572 173.59 141.832 173.99 142.052 173.35H141.902C142.702 172.59 142.502 172.35 143.202 171.62L143.252 171.73C143.532 171.52 143.702 170.95 144.142 170.9L143.672 171.38C143.872 171.48 144.292 171.18 144.532 171.09C144.992 170.55 144.472 170.67 144.702 170.4C144.942 170.4 144.802 170.45 144.762 170.76L144.992 170.52Z" fill="#202020"/>
</svg>
