<svg width="146" height="340" viewBox="0 0 146 340" fill="none" xmlns="http://www.w3.org/2000/svg">
<path fill-rule="evenodd" clip-rule="evenodd" d="M37.6427 0C24.5912 10.9031 14.383 24.8155 7.89638 40.54C7.75645 40.87 7.62651 41.2 7.48657 41.54L7.09675 42.54C4.78299 48.4695 3.01643 54.5984 1.81917 60.85C0.608952 67.1951 -0.000136017 73.6404 2.27832e-08 80.1C0.00541776 86.4742 0.597649 92.8344 1.76919 99.1C7.12673 127.81 20.8504 144.26 35.8736 169L36.9831 170.82C40.2216 176.21 43.5001 182.01 46.7786 188.41C47.0984 189.037 47.4316 189.677 47.7781 190.33C53.74 202.316 58.8179 214.723 62.9711 227.45C68.5993 244.707 73.0442 262.328 76.275 280.19C77.1347 284.79 77.9243 289.203 78.644 293.43C78.7039 293.77 78.7539 294.1 78.8039 294.43C78.8539 294.76 78.9238 295.1 78.9738 295.43C81.7925 312.34 83.5117 326.52 84.5413 339.55C84.5413 339.7 84.5413 339.85 84.5413 340H144.934V0H37.6427Z" fill="#4D3FAF"/>
<path fill-rule="evenodd" clip-rule="evenodd" d="M145.273 283V285.14C133.337 289.138 121.067 292.06 108.61 293.87C98.9036 295.23 89.1025 295.798 79.3037 295.57C79.3037 295.24 79.1938 294.91 79.1338 294.57C79.0738 294.23 79.0238 293.9 78.9639 293.57C88.7661 293.807 98.5713 293.239 108.28 291.87C120.857 290.052 133.24 287.083 145.273 283V283Z" fill="white"/>
<path fill-rule="evenodd" clip-rule="evenodd" d="M69.8081 186.51C94.017 184.61 118.906 182.65 145.164 178V180C118.946 184.62 94.1269 186.57 69.968 188.48C62.5414 189.06 55.2147 189.64 47.9781 190.3C47.6482 189.65 47.3284 189.01 46.9785 188.38C54.5151 187.72 62.1216 187.12 69.8081 186.51Z" fill="white"/>
<path fill-rule="evenodd" clip-rule="evenodd" d="M102.473 0C94.7868 12.68 85.4811 25.11 66.04 33.46C47.3786 41.46 26.4582 42.53 6.99707 42.54L7.38689 41.54C7.52683 41.2 7.65677 40.87 7.7967 40.54C26.838 40.54 47.1987 39.38 65.2604 31.63C83.7219 23.7 92.5479 12.37 100.134 0H102.473Z" fill="white"/>
<path fill-rule="evenodd" clip-rule="evenodd" d="M145.053 112V114.3C134.658 120.11 124.473 127.08 114.068 134.23C90.5984 150.31 66.3895 166.88 37.1029 171.4C36.7331 170.78 36.3632 170.16 35.9834 169.55C65.16 165.28 89.3989 148.67 112.948 132.55C123.713 125.19 134.258 117.96 145.053 112Z" fill="white"/>
<path fill-rule="evenodd" clip-rule="evenodd" d="M144.925 235.866V292.146C132.009 316.48 104.188 328.886 77.4647 322.227C50.7414 315.569 31.9854 291.558 31.9854 264.006C31.9854 236.454 50.7414 212.442 77.4647 205.784C104.188 199.126 132.009 211.532 144.925 235.866Z" fill="#B7C7FF"/>
</svg>
