<svg width="145" height="340" viewBox="0 0 145 340" fill="none" xmlns="http://www.w3.org/2000/svg"><path fill-rule="evenodd" clip-rule="evenodd" d="M145.08.5v316.63c-13.08 13.16-32.71 23.37-65 23.37-48 0-80-35-80-80s56-73 56-120c0-21.2-3.52-31.87-5.88-48.32l-.16-1.1c-.15-1-.28-2.09-.42-3.18v-.24a222.75 222.75 0 01-1.54-27.16c0-28.41 15.64-48.4 35.73-60h61.27z" fill="#302C4F"/><mask id="a" style="mask-type:alpha" maskUnits="userSpaceOnUse" x="0" y="0" width="145" height="340"><path fill-rule="evenodd" clip-rule="evenodd" d="M145.08.5v316.63c-13.08 13.16-32.71 23.37-65 23.37-48 0-80-35-80-80s56-73 56-120c0-21.2-3.52-31.87-5.88-48.32l-.16-1.1c-.15-1-.28-2.09-.42-3.18v-.24a222.75 222.75 0 01-1.54-27.16c0-28.41 15.64-48.4 35.73-60h61.27z" fill="#3349B1"/></mask><g mask="url(#a)"><path fill="#302C4F" d="M.08.5h145.05v339.9H.08z"/><path d="M150.77 45.27c-12.06 3.45-24.31 8.33-35.93 17.78-9.26 7.53-19.29 19.5-24.61 33.01-5.32 13.5-5.92 28.45 3.47 42.2 9.6 14.02 23.52 27.4 35.42 41.07 11.8 13.55 21.63 27.4 22.37 42.05.73 14.35-.68 35.3-3.48 55.3-2.8 19.98-7 39.16-11.87 49.94l-1.82-.83c4.75-10.49 8.91-29.43 11.7-49.39 2.8-19.93 4.2-40.74 3.47-54.92-.7-13.9-10.06-27.26-21.88-40.84-11.72-13.46-25.88-27.11-35.56-41.26-9.87-14.43-9.17-30.13-3.69-44.05 5.48-13.9 15.75-26.13 25.22-33.83 11.9-9.69 24.44-14.66 36.64-18.16l.55 1.93zM-.23 271.25a28.33 28.33 0 0116.3 5.02c5.82 4.05 18.1 16.35 35.88 60.47l-1.85.75c-17.75-44.02-29.84-55.87-35.17-59.58a26.31 26.31 0 00-16.2-4.62l-.27.02h-.06-.01l-.24-1.98h.04a8.15 8.15 0 00.4-.04c.28-.02.68-.04 1.18-.04zM23.56 205.82c19.78 16.14 35.9 28.22 46.4 41.34 10.58 13.22 15.5 27.51 13 48.05-2.46 20.3-4.9 32.67-6.56 41.83-1.66 9.15-2.54 15.02-1.96 22.44l-2 .16c-.6-7.7.33-13.8 2-22.96 1.66-9.16 4.08-21.47 6.54-41.7 2.43-20-2.33-33.77-12.58-46.57-10.33-12.9-26.19-24.8-46.1-41.03l1.26-1.56z" fill="#100E2D"/><path d="M104.05-.84c-30.41 37.94-46.28 71.5-51.68 86.9-5.37 15.3-4.9 22.16-4.72 35.58.19 13.5.09 22.86 2.5 31.49 2.4 8.56 7.31 16.45 17.7 26.83 19.32 19.32 35.54 25.28 43.34 59.4 4.14 18.1 1.62 39.41-1.8 58.12-1.7 9.35-3.65 18.14-5.1 25.51-1.48 7.44-2.44 13.4-2.26 17.31l-1 .05-1 .05c-.19-4.2.83-10.4 2.3-17.8 1.47-7.44 3.4-16.13 5.1-25.48 3.4-18.68 5.85-39.65 1.81-57.32-7.63-33.38-23.1-38.73-42.8-58.43-10.53-10.52-15.68-18.7-18.2-27.7-2.52-8.94-2.4-18.63-2.59-32-.18-13.47-.66-20.63 4.83-36.27 5.46-15.54 20.5-47.64 51.78-87.13l1.79.89z" fill="#100E2D"/></g></svg>