<svg width="145" height="340" viewBox="0 0 145 340" fill="none" xmlns="http://www.w3.org/2000/svg"><mask id="a" style="mask-type:alpha" maskUnits="userSpaceOnUse" x="0" y="0" width="145" height="340"><path fill-rule="evenodd" clip-rule="evenodd" d="M37.7.5A105 105 0 008 41l-.4 1-.4 1a104.3 104.3 0 00-5.4 56.6C7.2 128.3 21 144.8 36 169.5l1 1.8A295.7 295.7 0 0148 190.8c6 12 11 24.4 15.2 37.1a399.2 399.2 0 0115.7 66l.1 1 .2 1c2.8 17 4.5 31.1 5.6 44.2v.4H145V.5H37.7z" fill="#3349B1"/></mask><g mask="url(#a)"><path fill="#302C4F" d="M.1.5h145v340H.1z"/><path d="M147 285a238.8 238.8 0 01-39.7 9.8c-10.3 1.4-18.8 1.4-29.4 1.4v-2c10.6 0 19 0 29.1-1.4 10.1-1.4 22-4.1 39.5-9.6l.6 1.9zM145.9 180.4C99.8 187.6 78.4 188 45.6 191l-.2-2c33-3 54.1-3.4 100.2-10.6l.3 2zM147 114.2c-20.5 9.9-34 21.3-49.8 32A170.9 170.9 0 0135 172.8l-.4-1.9c28.2-6.4 45.7-16 61.4-26.6 15.6-10.5 29.4-22 50-32l.9 1.8zM102.8.3c-9.9 16-21.3 27-36.6 33.7-15.3 6.7-34.5 9.2-59.9 8.9v-2c25.3.3 44.1-2.2 59-8.8 15-6.5 26-17 35.8-32.8l1.7 1z" fill="#100E2D"/></g></svg>